<svg width="569" height="151" xmlns="http://www.w3.org/2000/svg"><g fill="#FFF" fill-rule="evenodd"><g opacity=".975"><path d="M85.118 109.53V68.26a2.661 2.661 0 00-2.661-2.66h-41.06V23h83.456a2.661 2.661 0 012.662 2.661v83.869H85.118z"/><path d="M41.397 23v42.6H2.202a1.33 1.33 0 01-.943-2.27L41.397 23zM85.118 148.906V109.53h42.397l-40.123 40.315a1.33 1.33 0 01-2.274-.94zM41.397 65.6h42.39c.735 0 1.331.595 1.331 1.33v42.6h-41.06a2.661 2.661 0 01-2.661-2.661v-41.27z" opacity=".405"/></g><path d="M290.84 52.402h-16.768v31.777c0 2.648.66 4.583 1.981 5.805 1.32 1.223 3.25 1.91 5.79 2.063 2.324.14 5.157.13 8.5-.028a131 131 0 00.475-.024.45.45 0 01.473.45v16.997a.45.45 0 01-.401.447l-.31.034c-13.135 1.404-22.421.105-27.86-3.897-5.536-4.074-8.305-11.357-8.305-21.847V52.402H241.61a.45.45 0 01-.45-.45V33.908a.45.45 0 01.45-.45h12.806V20.837a.9.9 0 01.537-.824l18.488-8.158a.45.45 0 01.632.411v21.192h16.769a.45.45 0 01.45.45v18.044a.45.45 0 01-.45.45zm36.092-5.806c1.828-4.889 4.85-8.555 9.066-11 3.858-2.236 8.12-3.45 12.787-3.64.207-.008.491-.015.851-.02a.45.45 0 01.457.45v20.721a.74.74 0 01-.808.738c-5.668-.514-10.757.736-15.268 3.751-4.723 3.157-7.085 8.403-7.085 15.736v36.063a.45.45 0 01-.45.45h-18.757a.45.45 0 01-.45-.45V33.908a.45.45 0 01.45-.45h18.757a.45.45 0 01.45.45v12.688zm92.943-13.138h18.756a.45.45 0 01.45.45v75.487a.45.45 0 01-.45.45h-18.756a.45.45 0 01-.45-.45v-8.564c-5.892 7.435-14.171 11.153-24.838 11.153-10.158 0-18.87-3.896-26.132-11.687-7.264-7.792-10.895-17.34-10.895-28.646 0-11.305 3.631-20.853 10.895-28.645 7.263-7.791 15.974-11.687 26.132-11.687 10.667 0 18.946 3.717 24.838 11.152v-8.563a.45.45 0 01.45-.45zm-36.716 53.776c3.962 3.973 8.99 5.959 15.085 5.959 6.095 0 11.15-2.012 15.162-6.035 4.012-4.023 6.019-9.192 6.019-15.507 0-6.314-2.007-11.483-6.02-15.506-4.012-4.023-9.066-6.035-15.16-6.035-6.096 0-11.124 2.012-15.086 6.035-3.962 4.023-5.943 9.192-5.943 15.506 0 6.315 1.981 11.51 5.943 15.583zM498.17 31.32c10.26 0 19.022 3.896 26.285 11.687 7.263 7.792 10.895 17.34 10.895 28.645 0 11.306-3.632 20.854-10.895 28.646-7.263 7.791-16.025 11.687-26.285 11.687-10.666 0-18.895-3.718-24.685-11.153v39.119a.45.45 0 01-.45.45H454.28a.45.45 0 01-.45-.45V33.908a.45.45 0 01.45-.45h18.757a.45.45 0 01.45.45v8.563c5.79-7.435 14.019-11.152 24.685-11.152zM479.43 87.234c3.962 3.973 8.99 5.959 15.085 5.959 6.095 0 11.149-2.012 15.162-6.035 4.012-4.023 6.018-9.192 6.018-15.507 0-6.314-2.006-11.483-6.018-15.506-4.013-4.023-9.067-6.035-15.162-6.035-6.095 0-11.123 2.012-15.085 6.035-3.962 4.023-5.943 9.192-5.943 15.506 0 6.315 1.98 11.51 5.943 15.583zm77.38-62.943c-3.25 0-6.069-1.197-8.456-3.59-2.387-2.394-3.58-5.22-3.58-8.479 0-3.26 1.193-6.111 3.58-8.555C550.74 1.222 553.559 0 556.81 0c3.352 0 6.222 1.222 8.61 3.667 2.386 2.444 3.58 5.296 3.58 8.555 0 3.26-1.194 6.085-3.58 8.479-2.388 2.393-5.258 3.59-8.61 3.59zm-9.751 85.104V33.908a.45.45 0 01.45-.45h18.756a.45.45 0 01.45.45v75.487a.45.45 0 01-.45.45h-18.756a.45.45 0 01-.45-.45zm-352.07-54.243c0 2.037 1.347 3.692 4.039 4.965 2.692 1.273 5.968 2.393 9.828 3.36 3.86.968 7.72 2.19 11.58 3.668 3.86 1.476 7.137 3.946 9.829 7.41 2.692 3.462 4.038 7.79 4.038 12.985 0 7.842-2.92 13.877-8.762 18.104-5.841 4.227-13.13 6.34-21.866 6.34-15.293 0-25.83-5.791-31.609-17.374l-.19-.387a.45.45 0 01.223-.607l16.534-7.345a.9.9 0 011.171.422c2.575 4.944 7.199 7.416 13.871 7.416 7.01 0 10.514-2.19 10.514-6.57 0-2.036-1.346-3.691-4.038-4.964-2.692-1.273-5.968-2.42-9.828-3.438a102.57 102.57 0 01-11.58-3.819c-3.861-1.528-7.137-3.947-9.83-7.257-2.691-3.31-4.037-7.46-4.037-12.451 0-7.537 2.768-13.47 8.304-17.798 5.537-4.329 12.419-6.493 20.647-6.493 6.197 0 11.835 1.4 16.914 4.201 4.612 2.543 8.289 5.88 11.131 10.36.145.23.34.55.585.965a.45.45 0 01-.206.64l-16.576 7.353a.653.653 0 01-.811-.24c-2.488-3.807-6.167-5.71-11.037-5.71-2.54 0-4.647.56-6.323 1.68-1.676 1.12-2.514 2.649-2.514 4.584z" fill-rule="nonzero"/></g></svg>
