<?xml version="1.0" encoding="UTF-8"?>
<svg width="569px" height="151px" viewBox="0 0 569 151" version="1.1" xmlns="http://www.w3.org/2000/svg" xmlns:xlink="http://www.w3.org/1999/xlink">
    <!-- Generator: Sketch 55.2 (78181) - https://sketchapp.com -->
    <title>Logo</title>
    <desc>Created with Sketch.</desc>
    <g id="Branding" stroke="none" stroke-width="1" fill="none" fill-rule="evenodd">
        <g id="Logo-Blue-Background" transform="translate(-436.000000, -387.000000)" fill="#FFFFFF">
            <g id="Logo" transform="translate(435.000000, 387.000000)">
                <g opacity="0.974562872" transform="translate(0.000000, 23.000000)" id="Monogram">
                    <g>
                        <path d="M86.1180301,86.5299289 L86.1180301,45.2607397 C86.1180301,43.7908945 84.9264851,42.5993496 83.45664,42.5993496 L42.3965686,42.5993496 L42.3965686,0 L125.853209,0 C127.323054,7.56290233e-15 128.514599,1.19154493 128.514599,2.66139009 L128.514599,86.5299289 L86.1180301,86.5299289 Z" id="Combined-Shape-Copy"></path>
                        <path d="M42.3965686,0 L42.3965686,42.5993496 L3.20177394,42.5993496 C2.46685136,42.5993496 1.87107889,42.0035771 1.87107889,41.2686546 C1.87107889,40.9168323 2.01040656,40.5793274 2.25858826,40.3299586 L42.3965686,0 Z" id="Rectangle-Copy-6" opacity="0.404989"></path>
                        <path d="M128.514599,89.7533814 L128.514599,129.129279 L86.1180301,129.129279 L126.240718,88.8146855 C126.759145,88.2937784 127.601693,88.2917683 128.1226,88.8101958 C128.373528,89.0599295 128.514599,89.3993589 128.514599,89.7533814 Z" id="Rectangle-Copy-7" opacity="0.404989" transform="translate(107.316314, 107.829604) scale(-1, -1) translate(-107.316314, -107.829604) "></path>
                        <path d="M42.3965686,42.5993496 L84.787335,42.5993496 C85.5222576,42.5993496 86.1180301,43.1951221 86.1180301,43.9300447 L86.1180301,86.5299289 L45.0579587,86.5299289 C43.5881136,86.5299289 42.3965686,85.338384 42.3965686,83.8685388 L42.3965686,42.5993496 Z" id="Rectangle-Copy-8" opacity="0.404989"></path>
                    </g>
                </g>
                <path d="M291.840637,52.401741 L275.072069,52.401741 L275.072069,84.1788901 C275.072069,86.8269991 275.732362,88.7621266 277.052966,89.9843308 C278.373571,91.2065349 280.303657,91.8940145 282.843281,92.04679 C285.166635,92.1865554 288.000069,92.1771474 291.343655,92.0185655 C291.464765,92.0128214 291.622726,92.0049606 291.817537,91.9949831 C292.065781,91.9821861 292.277333,92.1731242 292.290048,92.4213727 C292.29044,92.4290402 292.290637,92.4367165 292.290637,92.4443941 L292.290637,109.442258 C292.290578,109.671701 292.117933,109.864393 291.889868,109.889498 C291.76507,109.903235 291.66184,109.914468 291.580175,109.923197 C278.445469,111.327071 269.158836,110.02791 263.720005,106.02568 C258.183623,101.951666 255.415474,94.6694757 255.415474,84.1788901 L255.415474,52.401741 L242.608701,52.401741 C242.360172,52.401741 242.158701,52.2002692 242.158701,51.951741 L242.158701,33.9076714 C242.158701,33.6591432 242.360172,33.4576714 242.608701,33.4576714 L255.415474,33.4576714 L255.415474,20.8365829 C255.415474,20.4800483 255.625942,20.1571258 255.952129,20.013187 L274.440397,11.854764 C274.667771,11.7544292 274.933432,11.8574151 275.033767,12.0847896 C275.059024,12.1420262 275.072069,12.2039004 275.072069,12.2664619 L275.072069,33.4576714 L291.840637,33.4576714 C292.089165,33.4576714 292.290637,33.6591432 292.290637,33.9076714 L292.290637,51.951741 C292.290637,52.2002692 292.089165,52.401741 291.840637,52.401741 Z M327.931907,46.5963003 C329.760436,41.7074837 332.782544,38.0409263 336.998321,35.596518 C340.856419,33.3595 345.118583,32.1461089 349.784919,31.9563168 C349.992336,31.9478806 350.276135,31.9409612 350.636316,31.9355586 C350.88487,31.9317292 351.089387,32.1302014 351.093115,32.3787574 C351.093149,32.3810075 351.093166,32.3832577 351.093166,32.385508 L351.093166,53.1070035 C351.093148,53.5161345 350.761482,53.8478008 350.352351,53.8478008 C350.330017,53.8478008 350.307696,53.8467909 350.285454,53.8447741 C350.285454,53.8447741 350.285454,53.8447741 350.285454,53.8447741 C344.617207,53.3308112 339.52791,54.5812367 335.017424,57.5960827 C330.293722,60.7534434 327.931907,65.9986576 327.931907,73.3318825 L327.931907,109.395049 C327.931907,109.643577 327.730435,109.845049 327.481907,109.845049 L308.725312,109.845049 C308.476783,109.845049 308.275312,109.643577 308.275312,109.395049 L308.275312,33.9076714 C308.275312,33.6591432 308.476783,33.4576714 308.725312,33.4576714 L327.481907,33.4576714 C327.730435,33.4576714 327.931907,33.6591432 327.931907,33.9076714 L327.931907,46.5963003 Z M420.874567,33.4576714 L439.631162,33.4576714 C439.879691,33.4576714 440.081162,33.6591432 440.081162,33.9076714 L440.081162,109.395049 C440.081162,109.643577 439.879691,109.845049 439.631162,109.845049 L420.874567,109.845049 C420.626039,109.845049 420.424567,109.643577 420.424567,109.395049 L420.424567,100.831338 C414.532639,108.266414 406.253587,111.983896 395.587164,111.983896 C385.428666,111.983896 376.717885,108.088178 369.454559,100.296627 C362.191233,92.5050753 358.559625,82.9567486 358.559625,71.6513602 C358.559625,60.3459718 362.191233,50.7976451 369.454559,43.0060936 C376.717885,35.2145421 385.428666,31.3188248 395.587164,31.3188248 C406.253587,31.3188248 414.532639,35.0363067 420.424567,42.4713819 L420.424567,33.9076714 C420.424567,33.6591432 420.626039,33.4576714 420.874567,33.4576714 Z M384.158911,87.2343852 C388.120725,91.2065487 393.149106,93.1926007 399.244205,93.1926007 C405.339304,93.1926007 410.393081,91.1810865 414.405687,87.1579978 C418.418294,83.1349092 420.424567,77.9660816 420.424567,71.6513602 C420.424567,65.3366387 418.418294,60.1678112 414.405687,56.1447225 C410.393081,52.1216339 405.339304,50.1101197 399.244205,50.1101197 C393.149106,50.1101197 388.120725,52.1216339 384.158911,56.1447225 C380.197097,60.1678112 378.21622,65.3366387 378.21622,71.6513602 C378.21622,77.9660816 380.197097,83.1603714 384.158911,87.2343852 Z M499.171092,31.3188248 C509.431174,31.3188248 518.192747,35.2145421 525.456073,43.0060936 C532.719399,50.7976451 536.351008,60.3459718 536.351008,71.6513602 C536.351008,82.9567486 532.719399,92.5050753 525.456073,100.296627 C518.192747,108.088178 509.431174,111.983896 499.171092,111.983896 C488.504669,111.983896 480.276409,108.266414 474.486065,100.831338 L474.486065,139.95 C474.486065,140.198528 474.284593,140.4 474.036065,140.4 L455.27947,140.4 C455.030942,140.4 454.82947,140.198528 454.82947,139.95 L454.82947,33.9076714 C454.82947,33.6591432 455.030942,33.4576714 455.27947,33.4576714 L474.036065,33.4576714 C474.284593,33.4576714 474.486065,33.6591432 474.486065,33.9076714 L474.486065,42.4713819 C480.276409,35.0363067 488.504669,31.3188248 499.171092,31.3188248 Z M480.428757,87.2343852 C484.390571,91.2065487 489.418952,93.1926007 495.514051,93.1926007 C501.609149,93.1926007 506.662926,91.1810865 510.675533,87.1579978 C514.68814,83.1349092 516.694413,77.9660816 516.694413,71.6513602 C516.694413,65.3366387 514.68814,60.1678112 510.675533,56.1447225 C506.662926,52.1216339 501.609149,50.1101197 495.514051,50.1101197 C489.418952,50.1101197 484.390571,52.1216339 480.428757,56.1447225 C476.466943,60.1678112 474.486065,65.3366387 474.486065,71.6513602 C474.486065,77.9660816 476.466943,83.1603714 480.428757,87.2343852 Z M557.809864,24.2911861 C554.559144,24.2911861 551.740203,23.0944625 549.352956,20.7009793 C546.965709,18.3074962 545.772104,15.4811915 545.772104,12.2219804 C545.772104,8.96276934 546.965709,6.11100243 549.352956,3.66659412 C551.740203,1.22218582 554.559144,-3.85469434e-13 557.809864,-3.85469434e-13 C561.162168,-3.85469434e-13 564.0319,1.22218582 566.419147,3.66659412 C568.806394,6.11100243 570,8.96276934 570,12.2219804 C570,15.4811915 568.806394,18.3074962 566.419147,20.7009793 C564.0319,23.0944625 561.162168,24.2911861 557.809864,24.2911861 Z M548.057754,109.395049 L548.057754,33.9076714 C548.057754,33.6591432 548.259226,33.4576714 548.507754,33.4576714 L567.264349,33.4576714 C567.512878,33.4576714 567.714349,33.6591432 567.714349,33.9076714 L567.714349,109.395049 C567.714349,109.643577 567.512878,109.845049 567.264349,109.845049 L548.507754,109.845049 C548.259226,109.845049 548.057754,109.643577 548.057754,109.395049 Z M195.988559,55.1516866 C195.988559,57.1886935 197.334539,58.8437368 200.026541,60.1168662 C202.718543,61.3899955 205.99461,62.5103325 209.854839,63.4779108 C213.715068,64.4454891 217.575239,65.6676749 221.435469,67.1445049 C225.295698,68.6213349 228.571764,71.0911688 231.263766,74.5540805 C233.955768,78.0169923 235.301749,82.3455671 235.301749,87.5399347 C235.301749,95.3824114 232.381224,101.416954 226.540088,105.643743 C220.698952,109.870533 213.410339,111.983896 204.674031,111.983896 C189.380802,111.983896 178.84462,106.192664 173.065187,94.6100317 C173.015302,94.5100565 172.952139,94.3809002 172.875696,94.2225629 C172.767616,93.9987512 172.861462,93.7297091 173.085284,93.6216513 C173.089571,93.6195817 173.09389,93.6175803 173.09824,93.6156478 L189.631857,86.2708662 C190.066937,86.0776206 190.577265,86.2566094 190.796297,86.6792953 C190.798637,86.6838104 190.80095,86.6882636 190.803237,86.6926551 C193.378356,91.6370725 198.001921,94.1092492 204.674031,94.1092492 C211.683394,94.1092492 215.188024,91.9194996 215.188024,87.5399347 C215.188024,85.5029278 213.842043,83.8478845 211.150041,82.5747552 C208.458039,81.3016258 205.181973,80.1558266 201.321743,79.1373232 C197.461514,78.1188197 193.601343,76.8457095 189.741114,75.3179543 C185.880884,73.7901991 182.604818,71.3712897 179.912816,68.0611534 C177.220814,64.7510172 175.874833,60.6006778 175.874833,55.6100109 C175.874833,48.0730853 178.642983,42.1403916 184.179364,37.8117519 C189.715745,33.4831122 196.598024,31.3188248 204.826408,31.3188248 C211.023091,31.3188248 216.660973,32.7192461 221.740222,35.5201306 C226.351525,38.0629723 230.028556,41.4005768 232.871387,45.8808896 C233.016333,46.1093248 233.211039,46.4305935 233.455505,46.8446957 C233.581917,47.0587105 233.510836,47.334664 233.296791,47.4610256 C233.281827,47.46986 233.266363,47.4778202 233.250478,47.4848663 L216.674291,54.8375046 C216.381561,54.9673552 216.037863,54.8658268 215.862676,54.5977569 C213.375024,50.7911838 209.696293,48.8879217 204.826408,48.8879217 C202.286783,48.8879217 200.178926,49.4480902 198.502774,50.568444 C196.826622,51.6887978 195.988559,53.21653 195.988559,55.1516866 Z" id="strapi" fill-rule="nonzero"></path>
            </g>
        </g>
    </g>
</svg>