<svg width="12" height="8" xmlns="http://www.w3.org/2000/svg"><g fill="#333740" fill-rule="evenodd"><path d="M2.4 3H.594v-.214h.137c.123 0 .212-.01.266-.032.053-.022.086-.052.1-.092a.67.67 0 0 0 .018-.188V.74a.46.46 0 0 0-.03-.194C1.064.504 1.021.476.955.46A1.437 1.437 0 0 0 .643.435H.539V.23c.332-.035.565-.067.7-.096.135-.03.258-.075.37-.134h.275v2.507c0 .104.023.177.07.218.047.04.14.061.278.061H2.4V3zM2.736 6.695l-.132.528h-.246a.261.261 0 0 0 .015-.074c0-.058-.049-.087-.146-.087H.293v-.198c.258-.173.511-.367.76-.581.25-.215.457-.437.623-.667.166-.23.249-.447.249-.653a.49.49 0 0 0-.321-.478.794.794 0 0 0-.582-.006.482.482 0 0 0-.196.138.284.284 0 0 0-.07.182c0 .074.04.17.12.289.006.008.009.015.009.02 0 .012-.041.03-.123.053l-.19.057a.693.693 0 0 1-.115.03c-.031 0-.067-.038-.108-.114a.516.516 0 0 1 .071-.586.899.899 0 0 1 .405-.238c.18-.058.4-.087.657-.087.317 0 .566.044.749.132.183.087.306.187.37.3a.64.64 0 0 1 .094.312c0 .197-.089.389-.266.575a5.296 5.296 0 0 1-.916.74 62.947 62.947 0 0 1-.62.413h1.843zM4 0h8v1H4zM4 2h8v1H4zM4 4h8v1H4zM4 6h8v1H4z"/></g></svg>