<svg width="20" height="20" xmlns="http://www.w3.org/2000/svg"><g fill="none" fill-rule="evenodd"><path d="M11.363 12.727v1.545c0 .12-.044.223-.131.31a.424.424 0 01-.31.132H9.155a.424.424 0 01-.31-.131.424.424 0 01-.131-.31v-1.546c0-.12.044-.223.13-.31a.424.424 0 01.311-.132h1.767c.12 0 .223.044.31.131.087.088.131.191.131.31zm.207-7.285l-.193 5.298a.444.444 0 01-.142.31.436.436 0 01-.313.131H9.155a.436.436 0 01-.314-.13.444.444 0 01-.14-.311l-.194-5.298a.406.406 0 01.12-.31A.413.413 0 018.936 5h2.207c.12 0 .222.044.307.131.085.087.126.191.121.31z" fill-rule="nonzero" fill="#FF5D00"/><rect stroke="#FF5D00" x=".5" y=".5" width="19" height="19" rx="9.5"/></g></svg>