<?xml version="1.0" encoding="UTF-8"?>
<svg width="35px" height="20px" viewBox="0 0 35 20" version="1.1" xmlns="http://www.w3.org/2000/svg" xmlns:xlink="http://www.w3.org/1999/xlink">
    <!-- Generator: Sketch 46.1 (44463) - http://www.bohemiancoding.com/sketch -->
    <title>Type icon</title>
    <desc>Created with Sketch.</desc>
    <defs></defs>
    <g id="Pages" stroke="none" stroke-width="1" fill="none" fill-rule="evenodd">
        <g id="Content-Type-Builder---Content-Type-view" transform="translate(-577.000000, -560.000000)">
            <g id="Container">
                <g id="Content">
                    <g id="Forms" transform="translate(539.000000, 180.000000)">
                        <g id="7" transform="translate(38.000000, 380.000000)">
                            <g id="Type-icon">
                                <rect id="Rectangle-2" fill="#B981D5" x="0" y="0" width="35" height="20" rx="2"></rect>
                                <g id="picture-o" transform="translate(11.000000, 5.000000)" fill-rule="nonzero" fill="#FFFFFF">
                                    <path d="M4.33333333,3.03333333 C4.33333333,3.39444444 4.20694444,3.70138889 3.95416667,3.95416667 C3.70138889,4.20694444 3.39444444,4.33333333 3.03333333,4.33333333 C2.67222222,4.33333333 2.36527778,4.20694444 2.1125,3.95416667 C1.85972222,3.70138889 1.73333333,3.39444444 1.73333333,3.03333333 C1.73333333,2.67222222 1.85972222,2.36527778 2.1125,2.1125 C2.36527778,1.85972222 2.67222222,1.73333333 3.03333333,1.73333333 C3.39444444,1.73333333 3.70138889,1.85972222 3.95416667,2.1125 C4.20694444,2.36527778 4.33333333,2.67222222 4.33333333,3.03333333 Z M11.2666667,5.63333333 L11.2666667,8.66666667 L1.73333333,8.66666667 L1.73333333,7.36666667 L3.9,5.2 L4.98333333,6.28333333 L8.45,2.81666667 L11.2666667,5.63333333 Z M11.9166667,0.866666667 L1.08333333,0.866666667 C1.02465278,0.866666667 0.973871528,0.888107639 0.930989583,0.930989583 C0.888107639,0.973871528 0.866666667,1.02465278 0.866666667,1.08333333 L0.866666667,9.31666667 C0.866666667,9.37534722 0.888107639,9.42612847 0.930989583,9.46901042 C0.973871528,9.51189236 1.02465278,9.53333333 1.08333333,9.53333333 L11.9166667,9.53333333 C11.9753472,9.53333333 12.0261285,9.51189236 12.0690104,9.46901042 C12.1118924,9.42612847 12.1333333,9.37534722 12.1333333,9.31666667 L12.1333333,1.08333333 C12.1333333,1.02465278 12.1118924,0.973871528 12.0690104,0.930989583 C12.0261285,0.888107639 11.9753472,0.866666667 11.9166667,0.866666667 Z M13,1.08333333 L13,9.31666667 C13,9.61458333 12.8939236,9.86961806 12.6817708,10.0817708 C12.4696181,10.2939236 12.2145833,10.4 11.9166667,10.4 L1.08333333,10.4 C0.785416667,10.4 0.530381944,10.2939236 0.318229167,10.0817708 C0.106076389,9.86961806 0,9.61458333 0,9.31666667 L0,1.08333333 C0,0.785416667 0.106076389,0.530381944 0.318229167,0.318229167 C0.530381944,0.106076389 0.785416667,0 1.08333333,0 L11.9166667,0 C12.2145833,0 12.4696181,0.106076389 12.6817708,0.318229167 C12.8939236,0.530381944 13,0.785416667 13,1.08333333 Z" id="Shape"></path>
                                </g>
                            </g>
                        </g>
                    </g>
                </g>
            </g>
        </g>
    </g>
</svg>