<?xml version="1.0" encoding="UTF-8"?>
<svg width="35px" height="20px" viewBox="0 0 35 20" version="1.1" xmlns="http://www.w3.org/2000/svg" xmlns:xlink="http://www.w3.org/1999/xlink">
    <!-- Generator: Sketch 46.1 (44463) - http://www.bohemiancoding.com/sketch -->
    <title>Type icon</title>
    <desc>Created with Sketch.</desc>
    <defs></defs>
    <g id="Pages" stroke="none" stroke-width="1" fill="none" fill-rule="evenodd">
        <g id="Content-Type-Builder---Content-Type-view" transform="translate(-577.000000, -453.000000)">
            <g id="Container">
                <g id="Content">
                    <g id="Forms" transform="translate(539.000000, 180.000000)">
                        <g id="5" transform="translate(38.000000, 273.000000)">
                            <g id="Type-icon">
                                <rect id="Rectangle-2" fill="#1C8EE2" x="0" y="0" width="35" height="20" rx="2"></rect>
                                <g id="calendar" transform="translate(12.000000, 4.000000)" fill-rule="nonzero" fill="#FFFFFF">
                                    <path d="M0.857142857,11.1428571 L2.78571429,11.1428571 L2.78571429,9.21428571 L0.857142857,9.21428571 L0.857142857,11.1428571 Z M3.21428571,11.1428571 L5.35714286,11.1428571 L5.35714286,9.21428571 L3.21428571,9.21428571 L3.21428571,11.1428571 Z M0.857142857,8.78571429 L2.78571429,8.78571429 L2.78571429,6.64285714 L0.857142857,6.64285714 L0.857142857,8.78571429 Z M3.21428571,8.78571429 L5.35714286,8.78571429 L5.35714286,6.64285714 L3.21428571,6.64285714 L3.21428571,8.78571429 Z M0.857142857,6.21428571 L2.78571429,6.21428571 L2.78571429,4.28571429 L0.857142857,4.28571429 L0.857142857,6.21428571 Z M5.78571429,11.1428571 L7.92857143,11.1428571 L7.92857143,9.21428571 L5.78571429,9.21428571 L5.78571429,11.1428571 Z M3.21428571,6.21428571 L5.35714286,6.21428571 L5.35714286,4.28571429 L3.21428571,4.28571429 L3.21428571,6.21428571 Z M8.35714286,11.1428571 L10.2857143,11.1428571 L10.2857143,9.21428571 L8.35714286,9.21428571 L8.35714286,11.1428571 Z M5.78571429,8.78571429 L7.92857143,8.78571429 L7.92857143,6.64285714 L5.78571429,6.64285714 L5.78571429,8.78571429 Z M3.42857143,3 L3.42857143,1.07142857 C3.42857143,1.01339286 3.40736607,0.963169643 3.36495536,0.920758929 C3.32254464,0.878348214 3.27232143,0.857142857 3.21428571,0.857142857 L2.78571429,0.857142857 C2.72767857,0.857142857 2.67745536,0.878348214 2.63504464,0.920758929 C2.59263393,0.963169643 2.57142857,1.01339286 2.57142857,1.07142857 L2.57142857,3 C2.57142857,3.05803571 2.59263393,3.10825893 2.63504464,3.15066964 C2.67745536,3.19308036 2.72767857,3.21428571 2.78571429,3.21428571 L3.21428571,3.21428571 C3.27232143,3.21428571 3.32254464,3.19308036 3.36495536,3.15066964 C3.40736607,3.10825893 3.42857143,3.05803571 3.42857143,3 Z M8.35714286,8.78571429 L10.2857143,8.78571429 L10.2857143,6.64285714 L8.35714286,6.64285714 L8.35714286,8.78571429 Z M5.78571429,6.21428571 L7.92857143,6.21428571 L7.92857143,4.28571429 L5.78571429,4.28571429 L5.78571429,6.21428571 Z M8.35714286,6.21428571 L10.2857143,6.21428571 L10.2857143,4.28571429 L8.35714286,4.28571429 L8.35714286,6.21428571 Z M8.57142857,3 L8.57142857,1.07142857 C8.57142857,1.01339286 8.55022321,0.963169643 8.5078125,0.920758929 C8.46540179,0.878348214 8.41517857,0.857142857 8.35714286,0.857142857 L7.92857143,0.857142857 C7.87053571,0.857142857 7.8203125,0.878348214 7.77790179,0.920758929 C7.73549107,0.963169643 7.71428571,1.01339286 7.71428571,1.07142857 L7.71428571,3 C7.71428571,3.05803571 7.73549107,3.10825893 7.77790179,3.15066964 C7.8203125,3.19308036 7.87053571,3.21428571 7.92857143,3.21428571 L8.35714286,3.21428571 C8.41517857,3.21428571 8.46540179,3.19308036 8.5078125,3.15066964 C8.55022321,3.10825893 8.57142857,3.05803571 8.57142857,3 Z M11.1428571,2.57142857 L11.1428571,11.1428571 C11.1428571,11.375 11.0580357,11.5758929 10.8883929,11.7455357 C10.71875,11.9151786 10.5178571,12 10.2857143,12 L0.857142857,12 C0.625,12 0.424107143,11.9151786 0.254464286,11.7455357 C0.0848214286,11.5758929 0,11.375 0,11.1428571 L0,2.57142857 C0,2.33928571 0.0848214286,2.13839286 0.254464286,1.96875 C0.424107143,1.79910714 0.625,1.71428571 0.857142857,1.71428571 L1.71428571,1.71428571 L1.71428571,1.07142857 C1.71428571,0.776785714 1.81919643,0.524553571 2.02901786,0.314732143 C2.23883929,0.104910714 2.49107143,0 2.78571429,0 L3.21428571,0 C3.50892857,0 3.76116071,0.104910714 3.97098214,0.314732143 C4.18080357,0.524553571 4.28571429,0.776785714 4.28571429,1.07142857 L4.28571429,1.71428571 L6.85714286,1.71428571 L6.85714286,1.07142857 C6.85714286,0.776785714 6.96205357,0.524553571 7.171875,0.314732143 C7.38169643,0.104910714 7.63392857,0 7.92857143,0 L8.35714286,0 C8.65178571,0 8.90401786,0.104910714 9.11383929,0.314732143 C9.32366071,0.524553571 9.42857143,0.776785714 9.42857143,1.07142857 L9.42857143,1.71428571 L10.2857143,1.71428571 C10.5178571,1.71428571 10.71875,1.79910714 10.8883929,1.96875 C11.0580357,2.13839286 11.1428571,2.33928571 11.1428571,2.57142857 Z" id="Shape"></path>
                                </g>
                            </g>
                        </g>
                    </g>
                </g>
            </g>
        </g>
    </g>
</svg>