<?xml version="1.0" encoding="UTF-8"?>
<svg width="35px" height="20px" viewBox="0 0 35 20" version="1.1" xmlns="http://www.w3.org/2000/svg" xmlns:xlink="http://www.w3.org/1999/xlink">
    <!-- Generator: Sketch 46.1 (44463) - http://www.bohemiancoding.com/sketch -->
    <title>Type icon</title>
    <desc>Created with Sketch.</desc>
    <defs></defs>
    <g id="Pages" stroke="none" stroke-width="1" fill="none" fill-rule="evenodd">
        <g id="Content-Type-Builder---Content-Type-view" transform="translate(-577.000000, -291.000000)">
            <g id="Container">
                <g id="Content">
                    <g id="Forms" transform="translate(539.000000, 180.000000)">
                        <g id="2" transform="translate(38.000000, 111.000000)">
                            <g id="Type-icon">
                                <rect id="Rectangle-2" fill="#FF9200" x="0" y="0" width="35" height="20" rx="2"></rect>
                                <g id="align-left" transform="translate(11.000000, 5.500000)" fill-rule="nonzero" fill="#FFFFFF">
                                    <path d="M13,8.14285714 L13,9 C13,9.11607143 12.9540551,9.21651786 12.8621652,9.30133929 C12.7702753,9.38616071 12.6614583,9.42857143 12.5357143,9.42857143 L0.464285714,9.42857143 C0.338541667,9.42857143 0.229724702,9.38616071 0.137834821,9.30133929 C0.0459449405,9.21651786 0,9.11607143 0,9 L0,8.14285714 C0,8.02678571 0.0459449405,7.92633929 0.137834821,7.84151786 C0.229724702,7.75669643 0.338541667,7.71428571 0.464285714,7.71428571 L12.5357143,7.71428571 C12.6614583,7.71428571 12.7702753,7.75669643 12.8621652,7.84151786 C12.9540551,7.92633929 13,8.02678571 13,8.14285714 Z M10.2142857,5.57142857 L10.2142857,6.42857143 C10.2142857,6.54464286 10.1683408,6.64508929 10.0764509,6.72991071 C9.98456101,6.81473214 9.87574405,6.85714286 9.75,6.85714286 L0.464285714,6.85714286 C0.338541667,6.85714286 0.229724702,6.81473214 0.137834821,6.72991071 C0.0459449405,6.64508929 0,6.54464286 0,6.42857143 L0,5.57142857 C0,5.45535714 0.0459449405,5.35491071 0.137834821,5.27008929 C0.229724702,5.18526786 0.338541667,5.14285714 0.464285714,5.14285714 L9.75,5.14285714 C9.87574405,5.14285714 9.98456101,5.18526786 10.0764509,5.27008929 C10.1683408,5.35491071 10.2142857,5.45535714 10.2142857,5.57142857 Z M12.0714286,3 L12.0714286,3.85714286 C12.0714286,3.97321429 12.0254836,4.07366071 11.9335938,4.15848214 C11.8417039,4.24330357 11.7328869,4.28571429 11.6071429,4.28571429 L0.464285714,4.28571429 C0.338541667,4.28571429 0.229724702,4.24330357 0.137834821,4.15848214 C0.0459449405,4.07366071 0,3.97321429 0,3.85714286 L0,3 C0,2.88392857 0.0459449405,2.78348214 0.137834821,2.69866071 C0.229724702,2.61383929 0.338541667,2.57142857 0.464285714,2.57142857 L11.6071429,2.57142857 C11.7328869,2.57142857 11.8417039,2.61383929 11.9335938,2.69866071 C12.0254836,2.78348214 12.0714286,2.88392857 12.0714286,3 Z M9.28571429,0.428571429 L9.28571429,1.28571429 C9.28571429,1.40178571 9.23976935,1.50223214 9.14787946,1.58705357 C9.05598958,1.671875 8.94717262,1.71428571 8.82142857,1.71428571 L0.464285714,1.71428571 C0.338541667,1.71428571 0.229724702,1.671875 0.137834821,1.58705357 C0.0459449405,1.50223214 0,1.40178571 0,1.28571429 L0,0.428571429 C0,0.3125 0.0459449405,0.212053571 0.137834821,0.127232143 C0.229724702,0.0424107143 0.338541667,0 0.464285714,0 L8.82142857,0 C8.94717262,0 9.05598958,0.0424107143 9.14787946,0.127232143 C9.23976935,0.212053571 9.28571429,0.3125 9.28571429,0.428571429 Z" id="Shape"></path>
                                </g>
                            </g>
                        </g>
                    </g>
                </g>
            </g>
        </g>
    </g>
</svg>