<?xml version="1.0" encoding="UTF-8"?>
<svg width="35px" height="20px" viewBox="0 0 35 20" version="1.1" xmlns="http://www.w3.org/2000/svg" xmlns:xlink="http://www.w3.org/1999/xlink">
    <!-- Generator: Sketch 46.1 (44463) - http://www.bohemiancoding.com/sketch -->
    <title>Type icon</title>
    <desc>Created with Sketch.</desc>
    <defs></defs>
    <g id="Pages" stroke="none" stroke-width="1" fill="none" fill-rule="evenodd">
        <g id="Content-Type-Builder---Content-Type-view" transform="translate(-577.000000, -397.000000)">
            <g id="Container">
                <g id="Content">
                    <g id="Forms" transform="translate(539.000000, 180.000000)">
                        <g id="Authors" transform="translate(0.000000, 200.000000)">
                            <g id="Type-icon" transform="translate(38.000000, 17.000000)">
                                <rect id="Rectangle-2" fill="#1C5DE7" x="0" y="0" width="35" height="20" rx="2"></rect>
                                <path d="M21.8235294,12.3529412 C21.8235294,12.1895425 21.7663399,12.0506536 21.6519608,11.9362745 L20.377451,10.6617647 C20.2630719,10.5473856 20.124183,10.4901961 19.9607843,10.4901961 C19.7892157,10.4901961 19.6421569,10.5555556 19.5196078,10.6862745 C19.5318627,10.6985294 19.5706699,10.7363154 19.6360294,10.7996324 C19.7013889,10.8629493 19.7453023,10.9068627 19.7677696,10.9313725 C19.7902369,10.9558824 19.8208742,10.9946895 19.8596814,11.0477941 C19.8984886,11.1008987 19.9250408,11.152982 19.9393382,11.2040441 C19.9536356,11.2551062 19.9607843,11.3112745 19.9607843,11.372549 C19.9607843,11.5359477 19.9035948,11.6748366 19.7892157,11.7892157 C19.6748366,11.9035948 19.5359477,11.9607843 19.372549,11.9607843 C19.3112745,11.9607843 19.2551062,11.9536356 19.2040441,11.9393382 C19.152982,11.9250408 19.1008987,11.8984886 19.0477941,11.8596814 C18.9946895,11.8208742 18.9558824,11.7902369 18.9313725,11.7677696 C18.9068627,11.7453023 18.8629493,11.7013889 18.7996324,11.6360294 C18.7363154,11.5706699 18.6985294,11.5318627 18.6862745,11.5196078 C18.5514706,11.6462418 18.4840686,11.7953431 18.4840686,11.9669118 C18.4840686,12.1303105 18.5412582,12.2691993 18.6556373,12.3835784 L19.9178922,13.6519608 C20.0281863,13.7622549 20.1670752,13.817402 20.3345588,13.817402 C20.4979575,13.817402 20.6368464,13.7642974 20.7512255,13.6580882 L21.6519608,12.7634804 C21.7663399,12.6491013 21.8235294,12.5122549 21.8235294,12.3529412 Z M17.5159314,8.03308824 C17.5159314,7.86968954 17.4587418,7.73080065 17.3443627,7.61642157 L16.0821078,6.34803922 C15.9677288,6.23366013 15.8288399,6.17647059 15.6654412,6.17647059 C15.5061275,6.17647059 15.3672386,6.23161765 15.2487745,6.34191176 L14.3480392,7.23651961 C14.2336601,7.35089869 14.1764706,7.4877451 14.1764706,7.64705882 C14.1764706,7.81045752 14.2336601,7.94934641 14.3480392,8.06372549 L15.622549,9.33823529 C15.7328431,9.44852941 15.871732,9.50367647 16.0392157,9.50367647 C16.2107843,9.50367647 16.3578431,9.44035948 16.4803922,9.31372549 C16.4681373,9.30147059 16.4293301,9.26368464 16.3639706,9.20036765 C16.2986111,9.13705065 16.2546977,9.09313725 16.2322304,9.06862745 C16.2097631,9.04411765 16.1791258,9.00531046 16.1403186,8.95220588 C16.1015114,8.89910131 16.0749592,8.84701797 16.0606618,8.79595588 C16.0463644,8.74489379 16.0392157,8.68872549 16.0392157,8.62745098 C16.0392157,8.46405229 16.0964052,8.3251634 16.2107843,8.21078431 C16.3251634,8.09640523 16.4640523,8.03921569 16.627451,8.03921569 C16.6887255,8.03921569 16.7448938,8.04636438 16.7959559,8.06066176 C16.847018,8.07495915 16.8991013,8.10151144 16.9522059,8.14031863 C17.0053105,8.17912582 17.0441176,8.20976307 17.0686275,8.23223039 C17.0931373,8.25469771 17.1370507,8.29861111 17.2003676,8.36397059 C17.2636846,8.42933007 17.3014706,8.46813725 17.3137255,8.48039216 C17.4485294,8.35375817 17.5159314,8.20465686 17.5159314,8.03308824 Z M23,12.3529412 C23,12.8431373 22.8263889,13.2577614 22.4791667,13.5968137 L21.5784314,14.4914216 C21.2393791,14.8304739 20.8247549,15 20.3345588,15 C19.8402778,15 19.4236111,14.8263889 19.0845588,14.4791667 L17.8223039,13.2107843 C17.4832516,12.871732 17.3137255,12.4571078 17.3137255,11.9669118 C17.3137255,11.4644608 17.4934641,11.0375817 17.8529412,10.6862745 L17.3137255,10.1470588 C16.9624183,10.5065359 16.5375817,10.6862745 16.0392157,10.6862745 C15.5490196,10.6862745 15.1323529,10.5147059 14.7892157,10.1715686 L13.5147059,8.89705882 C13.1715686,8.55392157 13,8.1372549 13,7.64705882 C13,7.15686275 13.1736111,6.74223856 13.5208333,6.40318627 L14.4215686,5.50857843 C14.7606209,5.16952614 15.1752451,5 15.6654412,5 C16.1597222,5 16.5763889,5.17361111 16.9154412,5.52083333 L18.1776961,6.78921569 C18.5167484,7.12826797 18.6862745,7.54289216 18.6862745,8.03308824 C18.6862745,8.53553922 18.5065359,8.9624183 18.1470588,9.31372549 L18.6862745,9.85294118 C19.0375817,9.49346405 19.4624183,9.31372549 19.9607843,9.31372549 C20.4509804,9.31372549 20.8676471,9.48529412 21.2107843,9.82843137 L22.4852941,11.1029412 C22.8284314,11.4460784 23,11.8627451 23,12.3529412 Z" id="Shape" fill="#FFFFFF" fill-rule="nonzero"></path>
                            </g>
                        </g>
                    </g>
                </g>
            </g>
        </g>
    </g>
</svg>