<svg width="20" height="20" xmlns="http://www.w3.org/2000/svg"><g fill="none" fill-rule="evenodd"><path d="M12 12.6v.8c0 .108-.04.202-.119.281a.384.384 0 01-.281.119H8.4a.384.384 0 01-.281-.119A.384.384 0 018 13.4v-.8c0-.108.04-.202.119-.281A.384.384 0 018.4 12.2h.4V9.8h-.4a.384.384 0 01-.281-.119A.384.384 0 018 9.4v-.8c0-.108.04-.202.119-.281A.384.384 0 018.4 8.2h2.4c.108 0 .202.04.281.119.08.079.119.173.119.281v3.6h.4c.108 0 .202.04.281.119.08.079.119.173.119.281zm-.8-7.2v1.2c0 .108-.04.202-.119.281A.384.384 0 0110.8 7H9.2a.384.384 0 01-.281-.119A.384.384 0 018.8 6.6V5.4c0-.108.04-.202.119-.281A.384.384 0 019.2 5h1.6c.108 0 .202.04.281.119.08.079.119.173.119.281z" fill-rule="nonzero" fill="#1C5DE7"/><rect stroke="#1C5DE7" x=".5" y=".5" width="19" height="19" rx="9.5"/></g></svg>