<svg width="28" height="26" xmlns="http://www.w3.org/2000/svg"><g fill-rule="nonzero" fill="none"><path d="M8.453 12.772c-1.54.047-2.799.656-3.778 1.824h-1.91c-.779 0-1.435-.192-1.967-.577C.266 13.634 0 13.071 0 12.33c0-3.354.59-5.032 1.768-5.032.057 0 .263.1.62.3.356.2.82.401 1.39.605.57.205 1.135.307 1.696.307.636 0 1.268-.11 1.896-.328a7.106 7.106 0 0 0-.072.94c0 1.322.385 2.538 1.155 3.65zm15.266 9.08c0 1.14-.347 2.04-1.04 2.701-.694.66-1.616.99-2.766.99H7.455c-1.15 0-2.072-.33-2.765-.99-.694-.66-1.04-1.56-1.04-2.701 0-.504.016-.995.049-1.475.033-.48.1-.998.2-1.554s.225-1.072.377-1.547c.152-.475.357-.938.613-1.39.257-.45.551-.836.884-1.154a3.718 3.718 0 0 1 1.219-.763 4.28 4.28 0 0 1 1.59-.285c.094 0 .298.102.612.307.314.204.66.432 1.04.684.38.252.89.48 1.526.684a6.264 6.264 0 0 0 1.924.307c.646 0 1.288-.103 1.925-.307.636-.204 1.145-.432 1.525-.684.38-.252.727-.48 1.04-.684.314-.205.518-.307.613-.307.58 0 1.11.095 1.59.285.48.19.886.445 1.218.763.333.318.628.703.884 1.155.257.45.461.914.613 1.39.152.474.278.99.378 1.546.1.556.166 1.074.2 1.554.033.48.05.971.05 1.475zm3.65-9.522c0 .741-.267 1.304-.799 1.69-.532.384-1.188.576-1.967.576h-1.91c-.979-1.168-2.238-1.777-3.777-1.824.77-1.112 1.154-2.328 1.154-3.65 0-.275-.024-.588-.071-.94.627.219 1.259.328 1.896.328.56 0 1.126-.102 1.696-.307a9.374 9.374 0 0 0 1.39-.605c.356-.2.563-.3.62-.3 1.178 0 1.767 1.678 1.767 5.032z" fill="#553D38"/><path d="M9.123 3.65a3.516 3.516 0 0 1-1.07 2.58 3.516 3.516 0 0 1-2.58 1.068 3.516 3.516 0 0 1-2.58-1.069 3.516 3.516 0 0 1-1.068-2.58c0-1.007.356-1.867 1.069-2.58A3.516 3.516 0 0 1 5.474 0C6.48 0 7.34.356 8.054 1.07a3.516 3.516 0 0 1 1.069 2.58zm10.035 5.473c0 1.51-.535 2.8-1.604 3.87-1.069 1.069-2.359 1.603-3.87 1.603-1.51 0-2.8-.534-3.87-1.603-1.069-1.07-1.603-2.36-1.603-3.87 0-1.511.534-2.801 1.603-3.87 1.07-1.07 2.36-1.604 3.87-1.604 1.511 0 2.801.535 3.87 1.604 1.07 1.069 1.604 2.359 1.604 3.87zm6.386-5.474a3.516 3.516 0 0 1-1.07 2.58 3.516 3.516 0 0 1-2.58 1.07 3.516 3.516 0 0 1-2.58-1.07 3.516 3.516 0 0 1-1.068-2.58c0-1.007.356-1.867 1.069-2.58A3.516 3.516 0 0 1 21.895 0c1.007 0 1.867.356 2.58 1.07a3.516 3.516 0 0 1 1.069 2.58z" fill="#EBBF8E"/><path d="M12.496 19.991h2.393v-.897c0-.33-.117-.612-.35-.846a1.153 1.153 0 0 0-.847-.35c-.33 0-.612.116-.846.35-.233.234-.35.516-.35.846v.897zm3.889.45v2.691c0 .125-.044.231-.131.318a.433.433 0 0 1-.318.131h-4.487a.433.433 0 0 1-.318-.13.433.433 0 0 1-.131-.319V20.44c0-.124.044-.23.13-.318a.433.433 0 0 1 .319-.13h.15v-.898c0-.573.205-1.066.616-1.477A2.015 2.015 0 0 1 13.692 17c.574 0 1.066.206 1.477.617.412.411.617.904.617 1.477v.897h.15c.125 0 .23.044.318.131.087.088.13.194.13.318z" fill="#FFF"/></g></svg>