<?xml version="1.0" encoding="UTF-8"?>
<svg width="20px" height="20px" viewBox="0 0 20 20" version="1.1" xmlns="http://www.w3.org/2000/svg" xmlns:xlink="http://www.w3.org/1999/xlink">
    <!-- Generator: Sketch 44.1 (41455) - http://www.bohemiancoding.com/sketch -->
    <title>Check</title>
    <desc>Created with Sketch.</desc>
    <defs></defs>
    <g id="Pages" stroke="none" stroke-width="1" fill="none" fill-rule="evenodd">
        <g id="Home-view" transform="translate(-1086.000000, -34.000000)">
            <g id="Notification-2---Success" transform="translate(1066.000000, 14.000000)">
                <g id="Check" transform="translate(20.000000, 20.000000)">
                    <g id="check" transform="translate(5.500000, 7.000000)" fill-rule="nonzero" fill="#27B70F">
                        <path d="M9.34239514,1.3983456 C9.34239514,1.55907497 9.28613986,1.69569495 9.1736293,1.80820551 L4.80982666,6.17200815 L3.99010683,6.99172798 C3.87759626,7.10423854 3.74097629,7.16049383 3.58024691,7.16049383 C3.41951753,7.16049383 3.28289756,7.10423854 3.170387,6.99172798 L2.35066717,6.17200815 L0.168765848,3.99010683 C0.0562552826,3.87759626 0,3.74097629 0,3.58024691 C0,3.41951753 0.0562552826,3.28289756 0.168765848,3.170387 L0.98848568,2.35066717 C1.10099625,2.2381566 1.23761622,2.18190132 1.3983456,2.18190132 C1.55907497,2.18190132 1.69569495,2.2381566 1.80820551,2.35066717 L3.58024691,4.12873592 L7.53418963,0.168765848 C7.6467002,0.0562552826 7.78332017,0 7.94404955,0 C8.10477893,0 8.2413989,0.0562552826 8.35390947,0.168765848 L9.1736293,0.98848568 C9.28613986,1.10099625 9.34239514,1.23761622 9.34239514,1.3983456 Z" id="Shape"></path>
                    </g>
                    <rect id="Rectangle-2" stroke="#27B70F" x="0.5" y="0.5" width="19" height="19" rx="9.5"></rect>
                </g>
            </g>
        </g>
    </g>
</svg>