<svg width="35" height="24" xmlns="http://www.w3.org/2000/svg"><g fill="none" fill-rule="evenodd"><path d="M1.148 20.03c.567-7.141 2.974-7.675 7.222-1.604 6.372 9.107 7.533-.667 9.19-2.017" stroke="#FFD2B6" stroke-width="2" stroke-linecap="round" stroke-linejoin="round"/><g fill-rule="nonzero"><path d="M21.313 16.48l1.081-1.082-2.792-2.792-1.081 1.081v1.271h1.52v1.521h1.272zm6.214-11.027c0-.174-.087-.26-.262-.26a.275.275 0 0 0-.202.082l-6.44 6.44a.275.275 0 0 0-.082.202c0 .174.087.261.261.261.08 0 .147-.028.202-.083l6.44-6.44a.275.275 0 0 0 .083-.202zm-.642-2.28l4.943 4.942L21.943 18H17v-4.943l9.885-9.885zM35 4.312c0 .42-.147.776-.44 1.07l-1.972 1.971-4.942-4.942 1.972-1.96A1.412 1.412 0 0 1 30.688 0c.419 0 .78.15 1.08.451l2.792 2.78c.293.31.44.67.44 1.082z" fill="#181D29"/><path d="M35 4.313c0 .42-.147.776-.44 1.07l-1.972 1.971-4.942-4.942 1.972-1.96A1.412 1.412 0 0 1 30.688 0c.419 0 .78.15 1.08.451l2.792 2.78c.293.31.44.67.44 1.082z" fill="#FF84B3"/></g></g></svg>