<svg width="54" height="34" xmlns="http://www.w3.org/2000/svg"><g fill="none" fill-rule="evenodd"><g fill-rule="nonzero"><path d="M11.392 30.3a1.797 1.797 0 0 0-.22-1.409 1.797 1.797 0 0 0-1.141-.857 1.797 1.797 0 0 0-1.41.22c-.449.27-.734.65-.857 1.142-.122.492-.049.962.22 1.41.27.449.65.734 1.142.857.491.122.961.049 1.41-.22.448-.27.734-.65.856-1.142zm21.224-7.353L8.464 37.459c-.874.525-1.812.663-2.813.413-.983-.245-1.756-.809-2.318-1.692L1.09 32.37c-.548-.86-.695-1.8-.44-2.82.249-1.002.822-1.772 1.72-2.311l24.117-14.492a14.885 14.885 0 0 0 2.02 5.728 14.885 14.885 0 0 0 4.108 4.472z" fill="#181D29"/><path d="M53.663 15.097c-.184.737-.65 1.684-1.401 2.842-1.52 2.31-3.587 3.978-6.2 5.003-2.615 1.024-5.254 1.204-7.918.54-3.497-.872-6.177-2.86-8.043-5.965-1.865-3.105-2.362-6.405-1.49-9.901.871-3.496 2.86-6.177 5.964-8.043 3.105-1.865 6.405-2.362 9.901-1.49 1.096.273 2.205.715 3.328 1.326 1.122.611 2.028 1.304 2.718 2.078.251.283.336.586.256.907-.08.321-.297.548-.651.68l-9.5 2.72-1.584 6.35 4.715 4.397c.109-.033.97-.305 2.582-.816 1.613-.511 3.084-.957 4.414-1.339 1.33-.38 2.08-.55 2.25-.508.283.071.481.22.595.45.113.229.135.485.064.769z" fill="#A1A1A1"/></g><path stroke="#C6C6C6" fill="#D8D8D8" d="M46.521 5.425l3.657 3.41-1.125 4.872-4.781 1.461-3.657-3.41 1.125-4.871z"/></g></svg>