<svg width="32" height="24" viewBox="0 0 32 24" fill="none" xmlns="http://www.w3.org/2000/svg">
<rect x="0.5" y="0.5" width="31" height="23" rx="2.5" fill="#F0F0FF" stroke="#D9D8FF"/>
<path d="M14.5861 5.13768C11.8681 5.66816 9.6778 7.85296 9.14186 10.5628C8.13012 15.6761 12.7431 19.4879 16.2185 18.9492C17.3451 18.7742 17.8975 17.4562 17.3806 16.4418C16.749 15.2003 17.6514 13.7511 19.0459 13.7511H21.2252C22.2042 13.7511 22.9971 12.9417 22.9999 11.9655C22.9862 7.65608 19.065 4.2654 14.5861 5.13768ZM11.6247 13.7511C11.1407 13.7511 10.7497 13.3601 10.7497 12.8761C10.7497 12.3921 11.1407 12.0011 11.6247 12.0011C12.1087 12.0011 12.4997 12.3921 12.4997 12.8761C12.4997 13.3601 12.1087 13.7511 11.6247 13.7511ZM12.4997 10.251C12.0157 10.251 11.6247 9.86002 11.6247 9.37603C11.6247 8.89204 12.0157 8.50101 12.4997 8.50101C12.9837 8.50101 13.3747 8.89204 13.3747 9.37603C13.3747 9.86002 12.9837 10.251 12.4997 10.251ZM15.9998 8.50101C15.5158 8.50101 15.1248 8.10999 15.1248 7.626C15.1248 7.14201 15.5158 6.75099 15.9998 6.75099C16.4838 6.75099 16.8748 7.14201 16.8748 7.626C16.8748 8.10999 16.4838 8.50101 15.9998 8.50101ZM19.4998 10.251C19.0158 10.251 18.6248 9.86002 18.6248 9.37603C18.6248 8.89204 19.0158 8.50101 19.4998 8.50101C19.9838 8.50101 20.3748 8.89204 20.3748 9.37603C20.3748 9.86002 19.9838 10.251 19.4998 10.251Z" fill="#4945FF"/>
</svg>
