<svg width="24" height="24" viewBox="0 0 24 24" fill="none" xmlns="http://www.w3.org/2000/svg">
<rect x="3" y="3" width="18" height="18" rx="4" fill="#4945FF"/>
<path fill-rule="evenodd" clip-rule="evenodd" d="M15.8075 7.625H9.03058V11.1792H12.2533C12.4977 11.1792 12.6958 11.3773 12.6958 11.6216V14.8444H16.25V8.06746C16.25 7.82309 16.0519 7.625 15.8075 7.625Z" fill="white"/>
<path opacity="0.4" fill-rule="evenodd" clip-rule="evenodd" d="M9.0308 7.625V11.1792H6.01073C5.81364 11.1792 5.71494 10.9409 5.8543 10.8015L9.0308 7.625ZM13.0735 18.0209C12.9342 18.1603 12.6959 18.0616 12.6959 17.8645V14.8444H16.25L13.0735 18.0209ZM12.4746 11.1792H9.03058V14.4019C9.03058 14.6463 9.22868 14.8444 9.47304 14.8444H12.6958V11.4004C12.6958 11.2782 12.5968 11.1792 12.4746 11.1792Z" fill="#DAD9FF"/>
</svg>
