<svg width="800" height="800" viewBox="0 0 800 800" fill="none" xmlns="http://www.w3.org/2000/svg">
    <path d="M39 282c0-118 0-176.9 36.6-213.5C112.2 32 171.1 32 288.9 32h221.2c117.8 0 176.7 0 213.3 36.6C760 105.2 760 164.1 760 281.9v221.2c0 117.8 0 176.7-36.6 213.3C686.8 753 627.9 753 510.1 753H288.9c-117.8 0-176.7 0-213.3-36.6C39 679.8 39 620.9 39 503.1V281.9Z" fill="#4945FF"/>
    <path fill-rule="evenodd" clip-rule="evenodd" d="M536.4 250.7H293.7v123.8h123.8v123.7h123.8V255.5c0-2.6-2.2-4.8-4.9-4.8Z" fill="#fff"/>
    <path fill="#fff" d="M412.7 374.5h4.8v4.8h-4.8z"/>
    <path d="M293.8 374.5h119c2.6 0 4.8 2.1 4.8 4.8v119h-119a4.8 4.8 0 0 1-4.8-4.9v-119Z" fill="#9593FF"/>
    <path d="M417.5 498.2h123.8L421.6 618a2.4 2.4 0 0 1-4-1.7v-118ZM293.8 374.5h-118a2.4 2.4 0 0 1-1.7-4.1l119.7-119.7v123.8Z" fill="#9593FF"/>
</svg>
