<svg width="20" height="20" xmlns="http://www.w3.org/2000/svg"><g fill="none" fill-rule="evenodd"><path d="M14.842 8.398c0 .161-.056.298-.168.41l-4.364 4.364-.82.82a.558.558 0 0 1-.41.168.558.558 0 0 1-.41-.168l-.82-.82L5.67 10.99a.558.558 0 0 1-.169-.41c0-.16.056-.297.169-.41l.82-.82a.558.558 0 0 1 .41-.168c.16 0 .297.056.41.169l1.771 1.778 3.954-3.96a.558.558 0 0 1 .41-.169c.16 0 .297.056.41.169l.82.82c.112.112.168.249.168.41z" fill-rule="nonzero" fill="#27B70F"/><rect stroke="#27B70F" x=".5" y=".5" width="19" height="19" rx="9.5"/></g></svg>