<svg width="25" height="16" xmlns="http://www.w3.org/2000/svg"><g fill="none" fill-rule="evenodd"><rect fill="#ECEDEE" width="25" height="16" rx="1"/><path d="M13.283 11.031v1.688a.27.27 0 01-.085.197.27.27 0 01-.197.084h-1.687a.27.27 0 01-.197-.084.27.27 0 01-.084-.197V11.03a.27.27 0 01.084-.197.27.27 0 01.197-.084h1.687a.27.27 0 01.197.084.27.27 0 01.085.197zm2.222-4.219c0 .254-.037.49-.11.71-.072.221-.154.4-.245.539-.092.138-.22.277-.387.418-.167.14-.301.242-.404.306a14.28 14.28 0 01-.43.25c-.192.107-.352.26-.481.456-.129.197-.193.354-.193.472 0 .08-.029.155-.085.228-.056.073-.122.109-.197.109h-1.687c-.07 0-.13-.043-.18-.13a.529.529 0 01-.073-.264V9.59c0-.39.152-.756.457-1.1a2.97 2.97 0 011.005-.763c.277-.127.474-.258.59-.394.118-.136.177-.314.177-.535 0-.196-.11-.37-.327-.52a1.3 1.3 0 00-.756-.225c-.305 0-.558.068-.76.204-.164.117-.414.387-.752.809a.273.273 0 01-.218.112.336.336 0 01-.176-.056L9.12 6.243a.277.277 0 01-.07-.373C9.8 4.623 10.887 4 12.312 4c.375 0 .753.073 1.132.218.38.145.722.34 1.027.584.305.243.553.542.745.896.193.354.289.725.289 1.115z" fill-rule="nonzero" fill="#919BAE"/></g></svg>