<?xml version="1.0" encoding="UTF-8"?>
<svg width="25px" height="16px" viewBox="0 0 25 16" version="1.1" xmlns="http://www.w3.org/2000/svg" xmlns:xlink="http://www.w3.org/1999/xlink">
    <!-- Generator: Sketch 44.1 (41455) - http://www.bohemiancoding.com/sketch -->
    <title>Icon Flag Not Found</title>
    <desc>Created with Sketch.</desc>
    <defs></defs>
    <g id="Pages" stroke="none" stroke-width="1" fill="none" fill-rule="evenodd">
        <g id="Settings-Manager---Languages-view" transform="translate(-579.000000, -294.000000)">
            <g id="Container" transform="translate(234.000000, 53.000000)">
                <g id="Content">
                    <g id="Forms" transform="translate(335.000000, 126.000000)">
                        <g id="List" transform="translate(0.000000, 1.000000)">
                            <g id="2" transform="translate(10.000000, 113.000000)">
                                <g id="Icon-Flag-Not-Found" transform="translate(0.000000, 1.000000)">
                                    <rect id="Rectangle-2" fill="#ECEDEE" x="0" y="0" width="25" height="16" rx="1"></rect>
                                    <g id="question" transform="translate(9.000000, 4.000000)" fill-rule="nonzero" fill="#919BAE">
                                        <path d="M4.2827381,7.03125 L4.2827381,8.71875 C4.2827381,8.79375 4.2546131,8.859375 4.1983631,8.915625 C4.1421131,8.971875 4.0764881,9 4.0014881,9 L2.3139881,9 C2.2389881,9 2.1733631,8.971875 2.1171131,8.915625 C2.0608631,8.859375 2.0327381,8.79375 2.0327381,8.71875 L2.0327381,7.03125 C2.0327381,6.95625 2.0608631,6.890625 2.1171131,6.834375 C2.1733631,6.778125 2.2389881,6.75 2.3139881,6.75 L4.0014881,6.75 C4.0764881,6.75 4.1421131,6.778125 4.1983631,6.834375 C4.2546131,6.890625 4.2827381,6.95625 4.2827381,7.03125 Z M6.5046131,2.8125 C6.5046131,3.065625 6.46828497,3.30234375 6.39562872,3.52265625 C6.32297247,3.74296875 6.24094122,3.92226562 6.14953497,4.06054688 C6.05812872,4.19882813 5.92922247,4.33828125 5.76281622,4.47890625 C5.59640997,4.61953125 5.46164435,4.72148438 5.35851935,4.78476562 C5.25539435,4.84804687 5.1124256,4.93125 4.9296131,5.034375 C4.7374256,5.1421875 4.57687872,5.29453125 4.44797247,5.49140625 C4.31906622,5.68828125 4.2546131,5.8453125 4.2546131,5.9625 C4.2546131,6.0421875 4.2264881,6.11835938 4.1702381,6.19101563 C4.1139881,6.26367187 4.0483631,6.3 3.9733631,6.3 L2.2858631,6.3 C2.2155506,6.3 2.15578497,6.25664062 2.10656622,6.16992188 C2.05734747,6.08320312 2.0327381,5.9953125 2.0327381,5.90625 L2.0327381,5.58984375 C2.0327381,5.20078125 2.18508185,4.83398438 2.48976935,4.48945312 C2.79445685,4.14492187 3.1296131,3.890625 3.4952381,3.7265625 C3.7718006,3.6 3.9686756,3.46875 4.0858631,3.3328125 C4.2030506,3.196875 4.26164435,3.01875 4.26164435,2.7984375 C4.26164435,2.6015625 4.15265997,2.428125 3.93469122,2.278125 C3.71672247,2.128125 3.46476935,2.053125 3.17883185,2.053125 C2.87414435,2.053125 2.62101935,2.12109375 2.41945685,2.25703125 C2.25539435,2.37421875 2.0046131,2.64375 1.6671131,3.065625 C1.6061756,3.140625 1.53351935,3.178125 1.44914435,3.178125 C1.39289435,3.178125 1.3343006,3.159375 1.2733631,3.121875 L0.120238095,2.24296875 C0.0593005952,2.19609375 0.0229724702,2.1375 0.0112537202,2.0671875 C-0.000465029762,1.996875 0.0124255952,1.93125 0.0499255952,1.8703125 C0.799925595,0.6234375 1.8874256,0 3.3124256,0 C3.6874256,0 4.06476935,0.07265625 4.44445685,0.21796875 C4.82414435,0.36328125 5.16633185,0.5578125 5.47101935,0.8015625 C5.77570685,1.0453125 6.02414435,1.34414063 6.21633185,1.69804687 C6.40851935,2.05195313 6.5046131,2.4234375 6.5046131,2.8125 Z" id="Shape"></path>
                                    </g>
                                </g>
                            </g>
                        </g>
                    </g>
                </g>
            </g>
        </g>
    </g>
</svg>