<?xml version="1.0" encoding="UTF-8"?>
<svg width="11px" height="12px" viewBox="0 0 11 12" version="1.1" xmlns="http://www.w3.org/2000/svg" xmlns:xlink="http://www.w3.org/1999/xlink">
    <!-- Generator: Sketch 51.3 (57544) - http://www.bohemiancoding.com/sketch -->
    <title>Shape</title>
    <desc>Created with Sketch.</desc>
    <defs></defs>
    <g id="Pages" stroke="none" stroke-width="1" fill="none" fill-rule="evenodd">
        <g id="Users-&amp;-Groups---Edit-view" transform="translate(-991.000000, -97.000000)" fill="#F23508" fill-rule="nonzero">
            <g id="Container" transform="translate(266.000000, 84.000000)">
                <g id="Content-Header" transform="translate(0.154730, 0.000000)">
                    <g id="Delete-button" transform="translate(707.845270, 4.000000)">
                        <path d="M21,18.75 L21,13.25 C21,13.1770833 20.9765625,13.1171875 20.9296875,13.0703125 C20.8828125,13.0234375 20.8229167,13 20.75,13 L20.25,13 C20.1770833,13 20.1171875,13.0234375 20.0703125,13.0703125 C20.0234375,13.1171875 20,13.1770833 20,13.25 L20,18.75 C20,18.8229167 20.0234375,18.8828125 20.0703125,18.9296875 C20.1171875,18.9765625 20.1770833,19 20.25,19 L20.75,19 C20.8229167,19 20.8828125,18.9765625 20.9296875,18.9296875 C20.9765625,18.8828125 21,18.8229167 21,18.75 Z M23,18.75 L23,13.25 C23,13.1770833 22.9765625,13.1171875 22.9296875,13.0703125 C22.8828125,13.0234375 22.8229167,13 22.75,13 L22.25,13 C22.1770833,13 22.1171875,13.0234375 22.0703125,13.0703125 C22.0234375,13.1171875 22,13.1770833 22,13.25 L22,18.75 C22,18.8229167 22.0234375,18.8828125 22.0703125,18.9296875 C22.1171875,18.9765625 22.1770833,19 22.25,19 L22.75,19 C22.8229167,19 22.8828125,18.9765625 22.9296875,18.9296875 C22.9765625,18.8828125 23,18.8229167 23,18.75 Z M25,18.75 L25,13.25 C25,13.1770833 24.9765625,13.1171875 24.9296875,13.0703125 C24.8828125,13.0234375 24.8229167,13 24.75,13 L24.25,13 C24.1770833,13 24.1171875,13.0234375 24.0703125,13.0703125 C24.0234375,13.1171875 24,13.1770833 24,13.25 L24,18.75 C24,18.8229167 24.0234375,18.8828125 24.0703125,18.9296875 C24.1171875,18.9765625 24.1770833,19 24.25,19 L24.75,19 C24.8229167,19 24.8828125,18.9765625 24.9296875,18.9296875 C24.9765625,18.8828125 25,18.8229167 25,18.75 Z M20.75,11 L24.25,11 L23.875,10.0859375 C23.8385417,10.0390625 23.7942708,10.0104167 23.7421875,10 L21.265625,10 C21.2135417,10.0104167 21.1692708,10.0390625 21.1328125,10.0859375 L20.75,11 Z M28,11.25 L28,11.75 C28,11.8229167 27.9765625,11.8828125 27.9296875,11.9296875 C27.8828125,11.9765625 27.8229167,12 27.75,12 L27,12 L27,19.40625 C27,19.8385417 26.8776042,20.2122396 26.6328125,20.5273437 C26.3880208,20.8424479 26.09375,21 25.75,21 L19.25,21 C18.90625,21 18.6119792,20.8476562 18.3671875,20.5429687 C18.1223958,20.2382812 18,19.8697917 18,19.4375 L18,12 L17.25,12 C17.1770833,12 17.1171875,11.9765625 17.0703125,11.9296875 C17.0234375,11.8828125 17,11.8229167 17,11.75 L17,11.25 C17,11.1770833 17.0234375,11.1171875 17.0703125,11.0703125 C17.1171875,11.0234375 17.1770833,11 17.25,11 L19.6640625,11 L20.2109375,9.6953125 C20.2890625,9.50260417 20.4296875,9.33854167 20.6328125,9.203125 C20.8359375,9.06770833 21.0416667,9 21.25,9 L23.75,9 C23.9583333,9 24.1640625,9.06770833 24.3671875,9.203125 C24.5703125,9.33854167 24.7109375,9.50260417 24.7890625,9.6953125 L25.3359375,11 L27.75,11 C27.8229167,11 27.8828125,11.0234375 27.9296875,11.0703125 C27.9765625,11.1171875 28,11.1770833 28,11.25 Z" id="Shape"></path>
                    </g>
                </g>
            </g>
        </g>
    </g>
</svg>