<?xml version="1.0" encoding="UTF-8" standalone="no"?>
<!DOCTYPE svg PUBLIC "-//W3C//DTD SVG 1.1//EN" "http://www.w3.org/Graphics/SVG/1.1/DTD/svg11.dtd">
<svg width="100%" height="100%" viewBox="0 0 103 103" version="1.1" xmlns="http://www.w3.org/2000/svg" xmlns:xlink="http://www.w3.org/1999/xlink" xml:space="preserve" xmlns:serif="http://www.serif.com/" style="fill-rule:evenodd;clip-rule:evenodd;stroke-linejoin:round;stroke-miterlimit:2;fill:fff">
    <g transform="matrix(1,0,0,1,-469.827,-182.266)">
        <g id="Icon" transform="matrix(0.672861,0,0,0.672861,438.989,27.7667)">
            <circle cx="122.367" cy="306.152" r="73.563" style="fill:#3498DB;"/>
            <clipPath id="_clip1">
                <circle cx="122.367" cy="306.152" r="73.563"/>
            </clipPath>
            <g clip-path="url(#_clip1)">
                <g transform="matrix(1.55283,0,0,1.55283,-66.5904,101.019)">
                    <g transform="matrix(0.146503,0,0,0.15211,81.614,98.6353)">
                        <path d="M85.551,183.291C85.551,128.882 102.812,88.234 135.453,61.494C166.928,35.708 212.88,22.79 270.112,23.514C328.331,24.245 374.014,37.487 405.1,63.019C437.585,89.699 454.581,130.12 454.581,185.182L454.385,299.127L465.87,287.662L393.91,287.662L405.395,299.147L405.395,214.64L405.37,214.262C405.253,212.503 405.182,210.523 405.084,206.73C404.776,194.814 404.565,190.027 403.813,182.495C402.737,171.714 400.852,161.708 397.84,152.132C391.076,130.625 379.053,112.815 360.448,99.724C338.827,84.512 309.329,76.514 271.083,76.514C232.573,76.514 202.721,84.545 180.754,99.789C161.792,112.947 149.442,130.896 142.568,152.426C139.23,162.883 137.286,173.837 136.402,185.436C135.768,193.755 135.712,200.667 135.953,211.011C135.957,211.188 136.001,213.041 136.013,213.552C136.033,214.451 136.047,215.151 136.058,215.785L136.056,215.6L136.056,299.147L147.541,287.662L74.066,287.662L85.551,299.147L85.551,183.291ZM62.581,183.291L62.581,310.632L159.026,310.632L159.026,215.6L159.025,215.414C159.013,214.721 158.998,213.974 158.977,213.029C158.965,212.506 158.921,210.643 158.917,210.476C158.692,200.834 158.743,194.564 159.306,187.182C160.062,177.255 161.699,168.028 164.45,159.412C169.858,142.472 179.291,128.762 193.849,118.66C211.673,106.291 236.977,99.484 271.083,99.484C304.881,99.484 329.785,106.236 347.23,118.51C361.438,128.508 370.598,142.076 375.928,159.023C378.426,166.966 380.026,175.461 380.956,184.777C381.633,191.558 381.828,195.975 382.122,207.324C382.228,211.423 382.307,213.611 382.45,215.778L382.425,215.02L382.425,310.632L477.335,310.632L477.355,299.167L477.551,185.201C477.551,123.576 457.784,76.564 419.679,45.268C384.065,16.018 333.419,1.337 270.402,0.546C140.797,-1.094 62.581,62.983 62.581,183.291Z" style="fill-rule:nonzero;" fill="#fff"/>
                    </g>
                    <g transform="matrix(0.224865,0,0,0.22949,50.577,55.9129)">
                        <path d="M492.019,420.805C492.019,392.917 468.912,370.275 440.45,370.275L184.447,370.275C155.985,370.275 132.878,392.917 132.878,420.805L132.878,572.108C132.878,599.996 155.985,622.637 184.447,622.637L440.45,622.637C468.912,622.637 492.019,599.996 492.019,572.108L492.019,420.805Z" fill="#fff"/>
                    </g>
                </g>
            </g>
        </g>
    </g>
</svg>
