<svg xmlns="http://www.w3.org/2000/svg" width="160" fill="none" viewBox="29.41 44 149.09 50.35"><path stroke="#EAEAEF" d="M30.5 44.5c37 27 47.5 38 147.499 32"/><g filter="url(#a)"><path fill="#F29D41" d="m129.467 94.085 8.148-14.142a.598.598 0 0 0-.403-.887 75.099 75.099 0 0 0-3.045-.536c-1.875-.274-2.936-.44-4.837-.505-1.838-.064-2.873.01-4.698.153a64.05 64.05 0 0 0-2.692.293.597.597 0 0 0-.462.851l7.042 14.737c.186.388.732.41.947.036Z"/></g><g filter="url(#b)"><path fill="#F29D41" d="m46.99 75.52 13.813-8.697a.597.597 0 0 0 .058-.971 75.191 75.191 0 0 0-2.442-1.897c-1.53-1.119-2.39-1.761-4.04-2.707-1.595-.915-2.545-1.334-4.226-2.06a64.09 64.09 0 0 0-2.516-.999.597.597 0 0 0-.806.537l-.66 16.319a.535.535 0 0 0 .82.474Z"/></g><g filter="url(#c)"><path fill="#5CB176" d="m29.41 63.51 2.102-16.186a.597.597 0 0 1 .858-.46c.748.371 1.905.954 2.745 1.42 1.657.92 2.602 1.433 4.152 2.534 1.5 1.064 2.278 1.75 3.642 2.972a64.026 64.026 0 0 1 1.962 1.865c.291.286.214.771-.149.957l-14.538 7.443a.535.535 0 0 1-.774-.545Z"/></g><mask id="d" width="17" height="19" x="29" y="46" maskUnits="userSpaceOnUse" style="mask-type:alpha"><path fill="#5CB176" d="m29.412 63.51 2.101-16.186a.597.597 0 0 1 .858-.46c.749.371 1.905.954 2.746 1.42 1.657.92 2.601 1.433 4.152 2.534 1.5 1.064 2.278 1.75 3.642 2.972a64.148 64.148 0 0 1 1.962 1.865c.29.286.214.771-.15.957l-14.537 7.443a.535.535 0 0 1-.774-.545Z"/></mask><g stroke="#fff" stroke-linecap="round" stroke-width=".661" mask="url(#d)"><path d="M39.755 51.218c-1.05 1.558-4.606 4.788-10.44 5.247M36.415 47.816c-1.05 1.558-4.606 4.789-10.44 5.247M42.97 53.97c-1.457 1.908-6.341 5.902-14.216 6.619M42.15 58.499c-1.645 1.748-5.29 4.033-13.197 3.939"/></g><g filter="url(#e)"><path fill="#7B79FF" d="m169.813 92.983 5.927-15.208a.598.598 0 0 0-.531-.815 75.213 75.213 0 0 0-3.091-.072c-1.895.01-2.969.007-4.859.228-1.826.214-2.838.442-4.621.859-.815.19-1.893.488-2.617.694a.596.596 0 0 0-.328.91l9.178 13.51a.536.536 0 0 0 .942-.106Z"/></g><g filter="url(#f)"><path fill="#7B79FF" d="m87.001 90.853-4.466-15.699a.597.597 0 0 1 .606-.761c.835.045 2.127.123 3.084.22 1.886.19 2.956.287 4.816.685 1.797.385 2.784.709 4.519 1.291.794.267 1.839.665 2.54.938.38.148.501.624.24.938L87.929 91.048a.535.535 0 0 1-.927-.195Z"/></g><g filter="url(#g)"><path fill="#EE5E52" d="m66.153 85.122 12.355-10.665a.597.597 0 0 0-.087-.97 75.353 75.353 0 0 0-2.698-1.51c-1.68-.877-2.627-1.383-4.4-2.072-1.714-.666-2.716-.938-4.486-1.404a64.083 64.083 0 0 0-2.638-.611.597.597 0 0 0-.716.651l1.788 16.234a.535.535 0 0 0 .882.347Z"/></g><circle cx="70.793" cy="74.511" r=".992" fill="#fff" transform="rotate(8.553 70.793 74.51)"/><circle cx="65.574" cy="78.63" r=".992" fill="#fff" transform="rotate(8.553 65.574 78.63)"/><circle cx="65.408" cy="74.519" r=".992" fill="#fff" transform="rotate(8.553 65.408 74.519)"/><circle cx="67.834" cy="81.943" r=".992" fill="#fff" transform="rotate(8.553 67.834 81.943)"/><circle cx="67.259" cy="69.875" r=".992" fill="#fff" transform="rotate(8.553 67.259 69.875)"/><circle cx="74.691" cy="72.834" r=".992" fill="#fff" transform="rotate(8.553 74.69 72.834)"/><circle cx="71.171" cy="78.968" r=".992" fill="#fff" transform="rotate(8.553 71.171 78.968)"/><g filter="url(#h)"><path fill="#EE5E52" d="m149.911 93.824 6.521-14.963a.598.598 0 0 0-.499-.836 75.255 75.255 0 0 0-3.086-.193c-1.894-.064-2.967-.11-4.863.037-1.833.141-2.854.33-4.651.676-.823.158-1.912.414-2.643.59a.596.596 0 0 0-.364.898l8.64 13.86a.535.535 0 0 0 .945-.07Z"/></g><circle cx="149.5" cy="82.25" r=".992" fill="#fff" transform="rotate(-17.098 149.5 82.25)"/><circle cx="146.579" cy="88.222" r=".992" fill="#fff" transform="rotate(-17.098 146.579 88.222)"/><circle cx="144.65" cy="84.588" r=".992" fill="#fff" transform="rotate(-17.098 144.65 84.588)"/><circle cx="150.049" cy="90.231" r=".992" fill="#fff" transform="rotate(-17.098 150.049 90.231)"/><circle cx="144.306" cy="79.6" r=".992" fill="#fff" transform="rotate(-17.098 144.306 79.6)"/><circle cx="152.287" cy="79.051" r=".992" fill="#fff" transform="rotate(-17.098 152.287 79.05)"/><circle cx="151.77" cy="86.103" r=".992" fill="#fff" transform="rotate(-17.098 151.77 86.103)"/><g filter="url(#i)"><path fill="#5CB176" d="m109.171 93.4 8.86-13.707a.598.598 0 0 0-.357-.906c-.811-.2-2.07-.503-3.013-.69-1.859-.37-2.911-.59-4.806-.753-1.831-.157-2.869-.136-4.699-.086-.837.023-1.953.098-2.703.154a.597.597 0 0 0-.505.827l6.279 15.077c.166.398.71.447.944.084Z"/></g><mask id="j" width="18" height="17" x="101" y="77" maskUnits="userSpaceOnUse" style="mask-type:alpha"><path fill="#5CB176" d="m109.17 93.4 8.86-13.707a.598.598 0 0 0-.357-.905c-.811-.201-2.07-.504-3.013-.692-1.859-.37-2.911-.589-4.806-.751-1.831-.158-2.869-.137-4.699-.087-.837.023-1.953.099-2.703.154a.597.597 0 0 0-.505.827l6.279 15.077c.166.398.71.447.944.085Z"/></mask><g stroke="#fff" stroke-linecap="round" stroke-width=".661" mask="url(#j)"><path d="M109.225 77.335c-.207 1.867.418 6.632 4.573 10.753M113.972 76.9c-.207 1.867.418 6.631 4.573 10.753M104.992 77.357c-.121 2.397 1.023 8.602 6.568 14.24M102.69 81.343c.125 2.397 1.429 6.497 7.522 11.537"/></g><defs><filter id="a" width="21.565" height="21.649" x="118.775" y="76.009" color-interpolation-filters="sRGB" filterUnits="userSpaceOnUse"><feFlood flood-opacity="0" result="BackgroundImageFix"/><feColorMatrix in="SourceAlpha" result="hardAlpha" values="0 0 0 0 0 0 0 0 0 0 0 0 0 0 0 0 0 0 127 0"/><feOffset dy=".661"/><feGaussianBlur stdDeviation="1.322"/><feColorMatrix values="0 0 0 0 0.129412 0 0 0 0 0.129412 0 0 0 0 0.203922 0 0 0 0.1 0"/><feBlend in2="BackgroundImageFix" result="effect1_dropShadow_12_39"/><feBlend in="SourceGraphic" in2="effect1_dropShadow_12_39" result="shape"/></filter><filter id="b" width="20.201" height="22.741" x="43.526" y="56.167" color-interpolation-filters="sRGB" filterUnits="userSpaceOnUse"><feFlood flood-opacity="0" result="BackgroundImageFix"/><feColorMatrix in="SourceAlpha" result="hardAlpha" values="0 0 0 0 0 0 0 0 0 0 0 0 0 0 0 0 0 0 127 0"/><feOffset dy=".661"/><feGaussianBlur stdDeviation="1.322"/><feColorMatrix values="0 0 0 0 0.129412 0 0 0 0 0.129412 0 0 0 0 0.203922 0 0 0 0.1 0"/><feBlend in2="BackgroundImageFix" result="effect1_dropShadow_12_39"/><feBlend in="SourceGraphic" in2="effect1_dropShadow_12_39" result="shape"/></filter><filter id="c" width="20.932" height="22.602" x="26.761" y="44.818" color-interpolation-filters="sRGB" filterUnits="userSpaceOnUse"><feFlood flood-opacity="0" result="BackgroundImageFix"/><feColorMatrix in="SourceAlpha" result="hardAlpha" values="0 0 0 0 0 0 0 0 0 0 0 0 0 0 0 0 0 0 127 0"/><feOffset dy=".661"/><feGaussianBlur stdDeviation="1.322"/><feColorMatrix values="0 0 0 0 0.129412 0 0 0 0 0.129412 0 0 0 0 0.203922 0 0 0 0.1 0"/><feBlend in2="BackgroundImageFix" result="effect1_dropShadow_12_39"/><feBlend in="SourceGraphic" in2="effect1_dropShadow_12_39" result="shape"/></filter><filter id="e" width="21.482" height="21.724" x="156.944" y="74.904" color-interpolation-filters="sRGB" filterUnits="userSpaceOnUse"><feFlood flood-opacity="0" result="BackgroundImageFix"/><feColorMatrix in="SourceAlpha" result="hardAlpha" values="0 0 0 0 0 0 0 0 0 0 0 0 0 0 0 0 0 0 127 0"/><feOffset dy=".661"/><feGaussianBlur stdDeviation="1.322"/><feColorMatrix values="0 0 0 0 0.129412 0 0 0 0 0.129412 0 0 0 0 0.203922 0 0 0 0.1 0"/><feBlend in2="BackgroundImageFix" result="effect1_dropShadow_12_39"/><feBlend in="SourceGraphic" in2="effect1_dropShadow_12_39" result="shape"/></filter><filter id="f" width="21.256" height="22.139" x="79.868" y="72.409" color-interpolation-filters="sRGB" filterUnits="userSpaceOnUse"><feFlood flood-opacity="0" result="BackgroundImageFix"/><feColorMatrix in="SourceAlpha" result="hardAlpha" values="0 0 0 0 0 0 0 0 0 0 0 0 0 0 0 0 0 0 127 0"/><feOffset dy=".661"/><feGaussianBlur stdDeviation="1.322"/><feColorMatrix values="0 0 0 0 0.129412 0 0 0 0 0.129412 0 0 0 0 0.203922 0 0 0 0.1 0"/><feBlend in2="BackgroundImageFix" result="effect1_dropShadow_12_39"/><feBlend in="SourceGraphic" in2="effect1_dropShadow_12_39" result="shape"/></filter><filter id="g" width="20.526" height="22.664" x="60.835" y="65.893" color-interpolation-filters="sRGB" filterUnits="userSpaceOnUse"><feFlood flood-opacity="0" result="BackgroundImageFix"/><feColorMatrix in="SourceAlpha" result="hardAlpha" values="0 0 0 0 0 0 0 0 0 0 0 0 0 0 0 0 0 0 127 0"/><feOffset dy=".661"/><feGaussianBlur stdDeviation="1.322"/><feColorMatrix values="0 0 0 0 0.129412 0 0 0 0 0.129412 0 0 0 0 0.203922 0 0 0 0.1 0"/><feBlend in2="BackgroundImageFix" result="effect1_dropShadow_12_39"/><feBlend in="SourceGraphic" in2="effect1_dropShadow_12_39" result="shape"/></filter><filter id="h" width="21.537" height="21.662" x="137.59" y="75.788" color-interpolation-filters="sRGB" filterUnits="userSpaceOnUse"><feFlood flood-opacity="0" result="BackgroundImageFix"/><feColorMatrix in="SourceAlpha" result="hardAlpha" values="0 0 0 0 0 0 0 0 0 0 0 0 0 0 0 0 0 0 127 0"/><feOffset dy=".661"/><feGaussianBlur stdDeviation="1.322"/><feColorMatrix values="0 0 0 0 0.129412 0 0 0 0 0.129412 0 0 0 0 0.203922 0 0 0 0.1 0"/><feBlend in2="BackgroundImageFix" result="effect1_dropShadow_12_39"/><feBlend in="SourceGraphic" in2="effect1_dropShadow_12_39" result="shape"/></filter><filter id="i" width="21.515" height="21.712" x="99.257" y="75.238" color-interpolation-filters="sRGB" filterUnits="userSpaceOnUse"><feFlood flood-opacity="0" result="BackgroundImageFix"/><feColorMatrix in="SourceAlpha" result="hardAlpha" values="0 0 0 0 0 0 0 0 0 0 0 0 0 0 0 0 0 0 127 0"/><feOffset dy=".661"/><feGaussianBlur stdDeviation="1.322"/><feColorMatrix values="0 0 0 0 0.129412 0 0 0 0 0.129412 0 0 0 0 0.203922 0 0 0 0.1 0"/><feBlend in2="BackgroundImageFix" result="effect1_dropShadow_12_39"/><feBlend in="SourceGraphic" in2="effect1_dropShadow_12_39" result="shape"/></filter></defs></svg>