<svg id="bb61c743-ca18-43ba-937f-96e2ff3f6e25" data-name="Layer 1" xmlns="http://www.w3.org/2000/svg" width="817.9627" height="609.71634" viewBox="0 0 817.9627 609.71634"><ellipse cx="70" cy="594.37736" rx="70" ry="5.33898" fill="#e6e6e6"/><ellipse cx="221" cy="604.37736" rx="70" ry="5.33898" fill="#e6e6e6"/><path d="M944.29231,145.14183H591.06637a7.77837,7.77837,0,0,0-7.76889,7.7689V744.38289a7.77175,7.77175,0,0,0,7.76889,7.7689H944.29231a7.75148,7.75148,0,0,0,7.66534-6.557,6.68239,6.68239,0,0,0,.10356-1.21193V152.91073A7.77837,7.77837,0,0,0,944.29231,145.14183Zm4.66134,599.24106a4.66173,4.66173,0,0,1-4.66134,4.66134H591.06637a4.66173,4.66173,0,0,1-4.66134-4.66134V152.91073a4.66835,4.66835,0,0,1,4.66134-4.66134H944.29231a4.66835,4.66835,0,0,1,4.66134,4.66134Z" transform="translate(-191.01865 -145.14183)" fill="#e6e6e6"/><path d="M619.03441,188.772a3.111,3.111,0,0,0-3.10756,3.10756v128.4458a3.111,3.111,0,0,0,3.10756,3.10755H916.32427a3.111,3.111,0,0,0,3.10756-3.10755V191.87952a3.111,3.111,0,0,0-3.10756-3.10756Z" transform="translate(-191.01865 -145.14183)" fill="#e6e6e6"/><path d="M494.859,289.27179a3.00328,3.00328,0,0,0-3,3v124a3.00328,3.00328,0,0,0,3,3h287a3.00328,3.00328,0,0,0,3-3v-124a3.00328,3.00328,0,0,0-3-3Z" transform="translate(-191.01865 -145.14183)" fill="#6c63ff"/><path d="M348.77684,577.29154c.37768,9.28732-5.55463,17.51932-11.10925,24.918-2.533,3.46609-26.07346,26.95107-33.18334,37.216-1.722,2.48846-43.99269,51.28035-46.159,55.80183a21.45483,21.45483,0,0,0-1.25535,3.32166c-1.2664,4.33256-1.322,8.99846-1.21087,13.62v3.23277c.2222,7.05435.54434,14.14206,2.22185,20.97427.24437.9998.5221,2.01078.66653,3.02169a9.72429,9.72429,0,0,1-1.26641-.98867l-22.974-17.05275-1.43307-1.06644c-1.46643-4.24375-2.85509-8.532-4.42146-12.72011-.93321-2.48847.06665-5.33243,1.7108-7.40993a41.90039,41.90039,0,0,1,5.86571-5.3546,34.45545,34.45545,0,0,0,4.33257-5.51021c15.85293-23.074,60.501-105.87119,63.756-122.53507a38.11005,38.11005,0,0,1,12.99784-.16666l22.9184,3.04392c2.47734.33333,5.188.78878,6.79886,2.68849A8.37371,8.37371,0,0,1,348.77684,577.29154Z" transform="translate(-191.01865 -145.14183)" fill="#efb7b9"/><path d="M446.60494,596.22169a24.51207,24.51207,0,0,1-3.58834,9.73172c-2.35516,3.58833-29.40616,73.1656-37.81588,101.89412-1.54413,5.27689-.73318,10.376-.89985,12.1424-.1333,1.46643-.25549,2.93286-.36662,4.38817-.15555,1.81082-.27773,3.62163-.411,5.42132-.34438,4.76585-.64435,9.77614,1.36642,14.1087.78878,1.71087,1.97748,3.18835,2.49958,4.89922a9.694,9.694,0,0,1-2.15513-1.51084l-22.974-17.05275a105.42605,105.42605,0,0,1-4.32144-16.29725c-.57771-3.14394-.85544-6.75445,1.11092-9.16514a4.33178,4.33178,0,0,1,.36656-.42216,10.10421,10.10421,0,0,1,2.133-1.53308,17.75942,17.75942,0,0,0,2.04407-1.31088,7.70024,7.70024,0,0,0,1.31088-1.31089c1.88859-2.333,2.56624-5.61016,3.13282-8.68744,2.22185-12.59793,21.04093-89.89607,20.68543-91.8069-.3888-1.87747-11.0759-19.88552-18.408-23.8849a83.92045,83.92045,0,0,1,25.62906-14.6864,10.14112,10.14112,0,0,1,5.2769-.89985,8.743,8.743,0,0,1,2.7329,1.11093c5.03246,2.82173,8.8874,7.26543,12.57568,11.70913C442.02793,579.74671,447.527,587.612,446.60494,596.22169Z" transform="translate(-191.01865 -145.14183)" fill="#efb7b9"/><path d="M436.58,569.45655c-.71152,6.71877-19.58814,12.664-43.45808,16.36325-6.16448.95536-21.31088-36.35411-27.91455-35.72369-7.941.75808-7.38658,39.37793-15.24008,39.58537-26.73559.70621-44.01264-2.03383-49.59792-9.95985-3.02172-.73319-6.66554-2.46626-6.52112-5.55466.1-1.7664,1.49976-3.33278,1.48864-5.06582,0-3.02168,8.7652-36.10508,13.931-51.80246,1.28868-3.89936,2.22185-7.89866,3.67716-11.75361,6.28784-17.37489,8.98738-30.706,20.47436-45.1702a27.01866,27.01866,0,0,0,4.28818-6.76557,29.4953,29.4953,0,0,0,1.522-9.14289l.63323-10.87594c17.03049-.79983,33.57217-.47769,50.23606,3.1217a3.41056,3.41056,0,0,1,3.50988,3.30823l.00064.02455q.96651,5.96569,1.35533,11.98686a9.89886,9.89886,0,0,0,.37772,2.62177,10.87541,10.87541,0,0,0,1.79969,2.96615c9.64284,12.64234,15.553,27.77314,20.21884,42.92618s8.37639,30.72816,14.24207,45.54794c2.02189,5.11023,4.6659,10.85376,5.19913,16.33062C438.913,563.99072,438.44637,567.5346,436.58,569.45655Z" transform="translate(-191.01865 -145.14183)" fill="#2f2e41"/><path d="M452.76619,387.28692c2.93286-2.47735,5.86569-4.96581,8.55414-7.69871a117.256,117.256,0,0,0,10.48714-12.82006c3.39943-4.63257,6.77665-9.37621,8.88741-14.73088,2.38848-6.13229,3.12169-13.10891,7.27654-18.197a4.16589,4.16589,0,0,1,1.87747-1.46643c2.36628-.74434,4.13264,2.22185,4.58813,4.677,2.22185,12.02023-3.07725,24.01821-8.232,35.10526-1.69972,3.65492-3.47721,7.40985-6.42115,10.176a60.20611,60.20611,0,0,1-5.0547,3.87712,52.91659,52.91659,0,0,0-7.15436,7.0433q-5.55465,6.31008-10.56491,13.07561c-4.14377,5.55463-8.032,11.37587-12.94228,16.27509s-11.05372,8.8874-17.93035,9.8539c1.96632-.26661,1.322-11.80914,1.11092-13.26445-.29993-2.11079-1.74416-4.59925-1.78857-6.66555-.05553-2.53295.97762-2.8995,3.06616-4.677Z" transform="translate(-191.01865 -145.14183)" fill="#efb7b9"/><path d="M370.3133,314.588s-6.66555,33.32777-14.442,38.8824,42.21517,12.22021,42.21517,12.22021,1.11093-26.66221,14.442-38.88239S370.3133,314.588,370.3133,314.588Z" transform="translate(-191.01865 -145.14183)" fill="#efb7b9"/><path d="M415.10583,446.93251a14.88648,14.88648,0,0,0,5.09914.66652,39.99362,39.99362,0,0,0,16.84163-3.92159,3.09945,3.09945,0,0,0,1.26648-.911,3.39946,3.39946,0,0,0,.05553-2.72178c-3.13282-12.66458,2.91062-27.02884-3.08837-38.60466-6.52113,2.12183-13.67549,4.4437-20.19662,6.51a7.38819,7.38819,0,0,1-3.155.53323,6.66585,6.66585,0,0,1-3.39943-1.85523c-7.06549-6.11009-11.5203-14.61975-15.553-23.02946s-7.98756-17.086-14.342-23.92935-12.298-10.46479-21.58531-9.47609a13.93108,13.93108,0,0,0-8.5319,4.5548c-5.24357,5.64349-6.28784,14.231-4.4437,21.71858s6.07676,14.11989,10.476,20.44106c5.73238,8.243,11.898,16.36391,19.86335,22.48512a149.72594,149.72594,0,0,0,13.39776,8.65408" transform="translate(-191.01865 -145.14183)" fill="#e6e6e6"/><circle cx="205.40141" cy="161.11421" r="33.32776" fill="#efb7b9"/><path d="M409.75116,402.17334c-10.019,11.81439-12.13652,26.90764-14.18653,41.80413-10.065-3.41054-21.21868,2.31075-31.63915.2222a40.05252,40.05252,0,0,0-16.264-1.88763c-3.85482-.36758-7.67641-2.78939-11.35357-1.55628-6.11312,3.87235-.16009-20.11353-.52326-27.08476C332.5807,296.07752,427.96038,353.28411,409.75116,402.17334Z" transform="translate(-191.01865 -145.14183)" fill="#e6e6e6"/><path d="M466.0973,391.73062c2.93286-2.47734,5.86568-4.96581,8.55414-7.69871a117.25918,117.25918,0,0,0,10.48714-12.82c3.39943-4.63254,6.77665-9.37622,8.8874-14.73089,2.38848-6.13229,3.1217-13.1089,7.27655-18.197a4.16584,4.16584,0,0,1,1.87747-1.46643c2.36627-.74434,4.13264,2.22185,4.58812,4.677,2.22185,12.02022-3.07725,24.01823-8.232,35.10525-1.69971,3.65492-3.4772,7.40985-6.42115,10.176a60.20634,60.20634,0,0,1-5.05469,3.87711,52.91666,52.91666,0,0,0-7.15437,7.0433q-5.55464,6.31008-10.56491,13.07562c-4.14376,5.55462-8.032,11.37586-12.94227,16.27508s-11.05373,8.8874-17.93036,9.8539c1.96633-.26661,1.322-11.80914,1.11093-13.26445-.29994-2.11078-1.74416-4.59925-1.78857-6.66555-.05554-2.53294.97762-2.8995,3.06616-4.677Z" transform="translate(-191.01865 -145.14183)" fill="#efb7b9"/><path d="M406.41838,403.28427l-.07777.14442c-1.9219,3.5661-4.79921,6.56554-6.77665,10.12052-2.22186,4.02154-3.255,8.60967-4.14375,13.13115q-.9221,4.55469-1.69972,9.12072a122.52246,122.52246,0,0,1-11.55361-7.521c-7.96534-6.12121-14.131-14.24207-19.86336-22.49624-4.4437-6.32117-8.66522-12.95336-10.476-20.42993s-.75542-16.07506,4.4437-21.71858a13.95317,13.95317,0,0,1,8.5319-4.56589c9.28734-.98874,15.153,2.59956,21.50752,9.43175s10.28716,15.553,14.34205,23.92931C402.45237,396.06325,404.29651,399.78483,406.41838,403.28427Z" transform="translate(-191.01865 -145.14183)" opacity="0.1" style="isolation:isolate"/><path d="M370.38,354.63683a13.93107,13.93107,0,0,0-8.5319,4.5548c-5.24357,5.64349-6.28785,14.231-4.44371,21.71858s6.07677,14.11989,10.476,20.44106c5.73238,8.243,11.898,16.36391,19.86336,22.48512a149.72953,149.72953,0,0,0,13.39775,8.65409c7.67115,4.725,15.0432,3.25364,22.07409,8.8874a18.55212,18.55212,0,0,0,5.22136,3.33278,14.8865,14.8865,0,0,0,5.09915.66652c5.83269-.06339,11.58091-3.62373,16.84163-6.14345a3.09946,3.09946,0,0,0,1.26647-.911,3.39946,3.39946,0,0,0,.05553-2.72178c-3.13281-12.66458,2.91062-18.14144-3.08837-29.71726-6.52112,2.12184-13.67549,4.4437-20.19661,6.51a7.38835,7.38835,0,0,1-3.155.53322,6.66593,6.66593,0,0,1-3.39943-1.85523c-7.06547-6.11009-11.52029-14.61975-15.553-23.02946s-7.98756-17.086-14.34206-23.92935S379.66729,353.64813,370.38,354.63683Z" transform="translate(-191.01865 -145.14183)" fill="#e6e6e6"/><path d="M416.78767,749.20726a9.874,9.874,0,0,1-11.62031,1.82193,9.694,9.694,0,0,1-2.15513-1.51084l-22.974-17.05275-9.10953-6.76549a9.64334,9.64334,0,0,1-.14443-13.98658l6.04344-4.71032,2.49958-1.95524,3.35495-2.62177,2.93286-2.2885,18.81908,10.55379.32214.62212,14.24208,27.462A9.901,9.901,0,0,1,416.78767,749.20726Z" transform="translate(-191.01865 -145.14183)" fill="#2f2e41"/><path d="M269.03458,740.31986a9.874,9.874,0,0,1-11.62031,1.82193c-.2999-.15555-.59987-.33326-.88872-.52217a9.72429,9.72429,0,0,1-1.26641-.98867l-22.974-17.05275-1.43307-1.06644-7.67647-5.69906a9.64335,9.64335,0,0,1-.14443-13.98658l6.04344-4.71031,2.49958-1.95524,3.355-2.62177,2.93286-2.2885.47769.26661,16.50834,9.254,1.833,1.03315.32215.62211,14.24207,27.462A9.901,9.901,0,0,1,269.03458,740.31986Z" transform="translate(-191.01865 -145.14183)" fill="#2f2e41"/><path d="M427.79948,277.84613c-12.90485-14.62165-27.45618-21.61473-44.9024-15.19392-27.99164-9.39537-64.787,55.17345-42.13,78.58991l38.3708,3.19944,11.74926-21.15618-4.15751,21.91394,30.692,3.06348C401.76433,323.91834,406.78677,300.51746,427.79948,277.84613Z" transform="translate(-191.01865 -145.14183)" fill="#2f2e41"/><circle cx="381.33477" cy="209.12996" r="29.1211" fill="#fff"/><path id="b7967eb0-3852-4b4e-922e-fc5c5c10b32f" data-name="Path 40" d="M638.07886,350.39726a3.40529,3.40529,0,0,0,0,6.80967h91.94566a3.40529,3.40529,0,0,0,.11181-6.80967q-.05591-.00095-.11181,0Z" transform="translate(-191.01865 -145.14183)" fill="#fff"/><path id="ad32ad83-e01c-4d2e-9894-1e4be88f9c53" data-name="Path 40" d="M638.07886,330.67007a3.40529,3.40529,0,0,0,0,6.80966H683.9944a3.40529,3.40529,0,0,0,.1118-6.80966q-.0559-.00095-.1118,0Z" transform="translate(-191.01865 -145.14183)" fill="#fff"/><path id="b8c03661-e17a-4fab-8534-eccbef804c4d" data-name="Path 40" d="M638.07886,371.06385a3.40529,3.40529,0,0,0,0,6.80966h91.94566a3.40529,3.40529,0,1,0,.11181-6.80966q-.05591-.00095-.11181,0Z" transform="translate(-191.01865 -145.14183)" fill="#fff"/><circle cx="474.93448" cy="315.02366" r="7.25097" fill="#e6e6e6"/><path id="b77325d6-50dc-43c0-8216-f2a1d6b85c22" data-name="Path 40" d="M695.83537,456.411a3.755,3.755,0,0,0,0,7.50892H872.83991a3.755,3.755,0,0,0,.12328-7.50892q-.06164-.00105-.12328,0Z" transform="translate(-191.01865 -145.14183)" fill="#e6e6e6"/><circle cx="474.93448" cy="350.24267" r="7.25097" fill="#e6e6e6"/><path id="e824ced5-faa4-4682-b917-364e7ee8d226" data-name="Path 40" d="M695.83537,491.63a3.755,3.755,0,0,0,0,7.50893H872.83991a3.755,3.755,0,0,0,.12328-7.50893q-.06164-.001-.12328,0Z" transform="translate(-191.01865 -145.14183)" fill="#e6e6e6"/><circle cx="474.93448" cy="385.46168" r="7.25097" fill="#e6e6e6"/><path id="bbf5fbba-a419-4277-8479-b5449b0fda76" data-name="Path 40" d="M695.83537,526.84905a3.755,3.755,0,0,0,0,7.50893H872.83991a3.755,3.755,0,0,0,.12328-7.50893q-.06164-.001-.12328,0Z" transform="translate(-191.01865 -145.14183)" fill="#e6e6e6"/><circle cx="474.93448" cy="420.68069" r="7.25097" fill="#e6e6e6"/><path id="aac1deb1-7452-4c7b-a77e-b2a8d40303c2" data-name="Path 40" d="M695.83537,562.06806a3.755,3.755,0,0,0,0,7.50892H872.83991a3.755,3.755,0,1,0,.12328-7.50892q-.06164-.001-.12328,0Z" transform="translate(-191.01865 -145.14183)" fill="#e6e6e6"/><circle cx="474.93448" cy="455.8997" r="7.25097" fill="#e6e6e6"/><path id="a9b6ff26-3939-4f3a-ae63-2579aa7f3255" data-name="Path 40" d="M695.83537,597.28707a3.755,3.755,0,0,0,0,7.50892H872.83991a3.755,3.755,0,0,0,.12328-7.50892q-.06164-.001-.12328,0Z" transform="translate(-191.01865 -145.14183)" fill="#e6e6e6"/><circle cx="474.93448" cy="491.1187" r="7.25097" fill="#e6e6e6"/><path id="aecc0378-d450-4bc8-9586-b48de5acca36" data-name="Path 40" d="M695.83537,632.50608a3.755,3.755,0,0,0,0,7.50892H872.83991a3.755,3.755,0,0,0,.12328-7.50892q-.06164-.00105-.12328,0Z" transform="translate(-191.01865 -145.14183)" fill="#e6e6e6"/><circle cx="474.93448" cy="526.33771" r="7.25097" fill="#e6e6e6"/><path id="f8010015-3a79-4c4e-95e1-7b3292a2fa58" data-name="Path 40" d="M695.83537,667.72508a3.755,3.755,0,0,0,0,7.50893H872.83991a3.755,3.755,0,0,0,.12328-7.50893q-.06164-.001-.12328,0Z" transform="translate(-191.01865 -145.14183)" fill="#e6e6e6"/><path d="M1008.98135,619.7594c-.1554,3.8223-4.01911,82.72322-57.0237,125.83542q-3.32511,2.70357-6.90919,5.21031l-1.80237-1.7609h1.04622a4.66173,4.66173,0,0,0,4.66134-4.66134v-155.523c1.10837-5.96652,2.15459-11.82942,3.10756-17.537,5.16889-31.02382,7.56171-57.23089,3.68763-68.11772,1.67808,4.20556,35.364,90.22279,17.07084,177.86637C990.93681,656.26286,1008.13194,630.22149,1008.98135,619.7594Z" transform="translate(-191.01865 -145.14183)" fill="#e6e6e6"/></svg>