<svg xmlns="http://www.w3.org/2000/svg" width="24" height="15" fill="none"><path fill="#fff" fill-rule="evenodd" d="M4.39453 13.8298C1.93859 13.6455 0 11.468 0 8.80884 0 6.0289 2.11876 3.7753 4.73238 3.7753c.46775 0 .91964.07218 1.34638.20664C7.21234 1.62909 9.66469 0 12.5073 0c2.5102 0 4.7161 1.27036 5.9782 3.18766a4.54297 4.54297 0 0 1 .6132-.04144C21.8056 3.14622 24 5.54066 24 8.49436c0 2.89194-2.1036 5.24784-4.7323 5.34504v.0031l-1.8948.278a38.18054 38.18054 0 0 1-11.08354 0l-1.89483-.278v-.0127Z" clip-rule="evenodd"/></svg>