<svg xmlns="http://www.w3.org/2000/svg" width="160" fill="none" viewBox="25.41 41 149.09 63.37"><path stroke="#EAEAEF" d="M26.499 41.5c37 26.999 47.5 38 147.5 32"/><g filter="url(#a)"><path fill="#F29D41" d="m125.467 91.085 8.148-14.142a.598.598 0 0 0-.403-.886 75.267 75.267 0 0 0-3.045-.537c-1.875-.274-2.937-.44-4.837-.505-1.838-.063-2.873.01-4.698.154-.835.065-1.946.198-2.692.292a.597.597 0 0 0-.462.851l7.042 14.737c.186.389.731.41.947.036Z"/></g><g filter="url(#b)"><path fill="#F29D41" d="m42.99 72.52 13.813-8.696a.597.597 0 0 0 .058-.972 75.2 75.2 0 0 0-2.441-1.897c-1.53-1.118-2.391-1.76-4.041-2.707-1.595-.914-2.545-1.333-4.225-2.06a64.09 64.09 0 0 0-2.517-.998.597.597 0 0 0-.806.537l-.66 16.318a.535.535 0 0 0 .82.475Z"/></g><g filter="url(#c)"><path fill="#5CB176" d="m25.41 60.51 2.102-16.186a.597.597 0 0 1 .858-.46 75.16 75.16 0 0 1 2.746 1.42c1.657.92 2.6 1.433 4.152 2.534 1.499 1.064 2.277 1.75 3.641 2.972a64.27 64.27 0 0 1 1.963 1.865.597.597 0 0 1-.15.957l-14.537 7.443a.535.535 0 0 1-.775-.545Z"/></g><mask id="d" width="17" height="19" x="25" y="43" maskUnits="userSpaceOnUse" style="mask-type:alpha"><path fill="#5CB176" d="m25.411 60.51 2.102-16.185a.597.597 0 0 1 .858-.46c.748.37 1.905.953 2.746 1.42 1.657.92 2.601 1.432 4.152 2.533 1.5 1.064 2.278 1.751 3.641 2.972a64.148 64.148 0 0 1 1.963 1.866.597.597 0 0 1-.15.956l-14.537 7.444a.535.535 0 0 1-.775-.545Z"/></mask><g stroke="#fff" stroke-linecap="round" stroke-width=".661" mask="url(#d)"><path d="M35.754 48.218c-1.049 1.558-4.606 4.789-10.44 5.247M32.415 44.817c-1.05 1.558-4.606 4.788-10.44 5.247M38.97 50.97c-1.457 1.907-6.341 5.901-14.216 6.618M38.15 55.5c-1.645 1.747-5.29 4.032-13.198 3.938"/></g><g filter="url(#e)"><path fill="#7B79FF" d="m165.813 89.982 5.927-15.207a.598.598 0 0 0-.531-.816 75.356 75.356 0 0 0-3.091-.072c-1.895.011-2.969.008-4.859.229-1.826.213-2.838.442-4.621.858-.815.191-1.893.489-2.617.694a.596.596 0 0 0-.328.912l9.178 13.509a.536.536 0 0 0 .942-.107Z"/></g><g filter="url(#f)"><path fill="#7B79FF" d="m83.001 87.853-4.466-15.699a.597.597 0 0 1 .606-.762c.834.045 2.127.124 3.084.22 1.886.19 2.955.288 4.815.686 1.798.385 2.784.708 4.52 1.291.794.267 1.839.665 2.54.938.38.148.5.624.24.938L83.929 88.048a.535.535 0 0 1-.927-.195Z"/></g><circle cx="140.185" cy="103.188" r=".992" fill="#fff" transform="rotate(-12.71 140.185 103.188)"/><g filter="url(#g)"><path fill="#EE5E52" d="m62.153 82.122 12.356-10.665a.597.597 0 0 0-.088-.97 75.266 75.266 0 0 0-2.698-1.51c-1.68-.877-2.627-1.383-4.4-2.071-1.714-.666-2.716-.938-4.486-1.404a64.086 64.086 0 0 0-2.638-.612.597.597 0 0 0-.716.651l1.788 16.234a.535.535 0 0 0 .882.347Z"/></g><circle cx="66.793" cy="71.511" r=".992" fill="#fff" transform="rotate(8.553 66.793 71.51)"/><circle cx="61.575" cy="75.631" r=".992" fill="#fff" transform="rotate(8.553 61.575 75.63)"/><circle cx="61.409" cy="71.519" r=".992" fill="#fff" transform="rotate(8.553 61.409 71.519)"/><circle cx="63.834" cy="78.943" r=".992" fill="#fff" transform="rotate(8.553 63.834 78.943)"/><circle cx="63.259" cy="66.875" r=".992" fill="#fff" transform="rotate(8.553 63.259 66.875)"/><circle cx="70.691" cy="69.834" r=".992" fill="#fff" transform="rotate(8.553 70.69 69.834)"/><circle cx="67.171" cy="75.969" r=".992" fill="#fff" transform="rotate(8.553 67.171 75.969)"/><g filter="url(#h)"><path fill="#EE5E52" d="m145.911 90.824 6.521-14.962a.597.597 0 0 0-.499-.836 75.025 75.025 0 0 0-3.085-.194c-1.894-.064-2.968-.11-4.864.037-1.833.142-2.854.33-4.651.676-.823.158-1.912.414-2.643.59a.597.597 0 0 0-.364.898l8.64 13.86a.535.535 0 0 0 .945-.07Z"/></g><circle cx="145.5" cy="79.25" r=".992" fill="#fff" transform="rotate(-17.098 145.5 79.25)"/><circle cx="142.579" cy="85.223" r=".992" fill="#fff" transform="rotate(-17.098 142.579 85.223)"/><circle cx="140.65" cy="81.588" r=".992" fill="#fff" transform="rotate(-17.098 140.65 81.588)"/><circle cx="146.049" cy="87.231" r=".992" fill="#fff" transform="rotate(-17.098 146.049 87.231)"/><circle cx="140.307" cy="76.6" r=".992" fill="#fff" transform="rotate(-17.098 140.307 76.6)"/><circle cx="148.288" cy="76.051" r=".992" fill="#fff" transform="rotate(-17.098 148.288 76.05)"/><circle cx="147.77" cy="83.103" r=".992" fill="#fff" transform="rotate(-17.098 147.77 83.103)"/><g filter="url(#i)"><path fill="#5CB176" d="m105.171 90.4 8.86-13.707a.598.598 0 0 0-.357-.906c-.811-.2-2.07-.504-3.013-.691-1.859-.37-2.911-.59-4.806-.752-1.831-.157-2.869-.136-4.699-.086-.837.023-1.953.098-2.703.154a.597.597 0 0 0-.505.827l6.279 15.076c.166.398.71.447.944.085Z"/></g><mask id="j" width="18" height="17" x="97" y="74" maskUnits="userSpaceOnUse" style="mask-type:alpha"><path fill="#5CB176" d="m105.17 90.4 8.86-13.707a.598.598 0 0 0-.357-.906c-.811-.2-2.07-.503-3.013-.69-1.859-.37-2.91-.59-4.806-.752-1.831-.158-2.869-.137-4.699-.087-.837.023-1.953.098-2.703.154a.597.597 0 0 0-.505.827l6.279 15.077c.166.398.71.447.944.085Z"/></mask><g stroke="#fff" stroke-linecap="round" stroke-width=".661" mask="url(#j)"><path d="M105.225 74.336c-.207 1.867.418 6.63 4.573 10.752M109.972 73.9c-.207 1.867.418 6.631 4.573 10.753M100.992 74.357c-.121 2.397 1.023 8.602 6.568 14.24M98.69 78.343c.125 2.397 1.43 6.497 7.522 11.537"/></g><defs><filter id="a" width="21.564" height="21.649" x="114.775" y="73.009" color-interpolation-filters="sRGB" filterUnits="userSpaceOnUse"><feFlood flood-opacity="0" result="BackgroundImageFix"/><feColorMatrix in="SourceAlpha" result="hardAlpha" values="0 0 0 0 0 0 0 0 0 0 0 0 0 0 0 0 0 0 127 0"/><feOffset dy=".661"/><feGaussianBlur stdDeviation="1.322"/><feColorMatrix values="0 0 0 0 0.129412 0 0 0 0 0.129412 0 0 0 0 0.203922 0 0 0 0.1 0"/><feBlend in2="BackgroundImageFix" result="effect1_dropShadow_121_4200"/><feBlend in="SourceGraphic" in2="effect1_dropShadow_121_4200" result="shape"/></filter><filter id="b" width="20.201" height="22.741" x="39.526" y="53.167" color-interpolation-filters="sRGB" filterUnits="userSpaceOnUse"><feFlood flood-opacity="0" result="BackgroundImageFix"/><feColorMatrix in="SourceAlpha" result="hardAlpha" values="0 0 0 0 0 0 0 0 0 0 0 0 0 0 0 0 0 0 127 0"/><feOffset dy=".661"/><feGaussianBlur stdDeviation="1.322"/><feColorMatrix values="0 0 0 0 0.129412 0 0 0 0 0.129412 0 0 0 0 0.203922 0 0 0 0.1 0"/><feBlend in2="BackgroundImageFix" result="effect1_dropShadow_121_4200"/><feBlend in="SourceGraphic" in2="effect1_dropShadow_121_4200" result="shape"/></filter><filter id="c" width="20.932" height="22.602" x="22.761" y="41.819" color-interpolation-filters="sRGB" filterUnits="userSpaceOnUse"><feFlood flood-opacity="0" result="BackgroundImageFix"/><feColorMatrix in="SourceAlpha" result="hardAlpha" values="0 0 0 0 0 0 0 0 0 0 0 0 0 0 0 0 0 0 127 0"/><feOffset dy=".661"/><feGaussianBlur stdDeviation="1.322"/><feColorMatrix values="0 0 0 0 0.129412 0 0 0 0 0.129412 0 0 0 0 0.203922 0 0 0 0.1 0"/><feBlend in2="BackgroundImageFix" result="effect1_dropShadow_121_4200"/><feBlend in="SourceGraphic" in2="effect1_dropShadow_121_4200" result="shape"/></filter><filter id="e" width="21.482" height="21.725" x="152.944" y="71.904" color-interpolation-filters="sRGB" filterUnits="userSpaceOnUse"><feFlood flood-opacity="0" result="BackgroundImageFix"/><feColorMatrix in="SourceAlpha" result="hardAlpha" values="0 0 0 0 0 0 0 0 0 0 0 0 0 0 0 0 0 0 127 0"/><feOffset dy=".661"/><feGaussianBlur stdDeviation="1.322"/><feColorMatrix values="0 0 0 0 0.129412 0 0 0 0 0.129412 0 0 0 0 0.203922 0 0 0 0.1 0"/><feBlend in2="BackgroundImageFix" result="effect1_dropShadow_121_4200"/><feBlend in="SourceGraphic" in2="effect1_dropShadow_121_4200" result="shape"/></filter><filter id="f" width="21.255" height="22.139" x="75.868" y="69.409" color-interpolation-filters="sRGB" filterUnits="userSpaceOnUse"><feFlood flood-opacity="0" result="BackgroundImageFix"/><feColorMatrix in="SourceAlpha" result="hardAlpha" values="0 0 0 0 0 0 0 0 0 0 0 0 0 0 0 0 0 0 127 0"/><feOffset dy=".661"/><feGaussianBlur stdDeviation="1.322"/><feColorMatrix values="0 0 0 0 0.129412 0 0 0 0 0.129412 0 0 0 0 0.203922 0 0 0 0.1 0"/><feBlend in2="BackgroundImageFix" result="effect1_dropShadow_121_4200"/><feBlend in="SourceGraphic" in2="effect1_dropShadow_121_4200" result="shape"/></filter><filter id="g" width="20.526" height="22.664" x="56.835" y="62.894" color-interpolation-filters="sRGB" filterUnits="userSpaceOnUse"><feFlood flood-opacity="0" result="BackgroundImageFix"/><feColorMatrix in="SourceAlpha" result="hardAlpha" values="0 0 0 0 0 0 0 0 0 0 0 0 0 0 0 0 0 0 127 0"/><feOffset dy=".661"/><feGaussianBlur stdDeviation="1.322"/><feColorMatrix values="0 0 0 0 0.129412 0 0 0 0 0.129412 0 0 0 0 0.203922 0 0 0 0.1 0"/><feBlend in2="BackgroundImageFix" result="effect1_dropShadow_121_4200"/><feBlend in="SourceGraphic" in2="effect1_dropShadow_121_4200" result="shape"/></filter><filter id="h" width="21.536" height="21.662" x="133.591" y="72.788" color-interpolation-filters="sRGB" filterUnits="userSpaceOnUse"><feFlood flood-opacity="0" result="BackgroundImageFix"/><feColorMatrix in="SourceAlpha" result="hardAlpha" values="0 0 0 0 0 0 0 0 0 0 0 0 0 0 0 0 0 0 127 0"/><feOffset dy=".661"/><feGaussianBlur stdDeviation="1.322"/><feColorMatrix values="0 0 0 0 0.129412 0 0 0 0 0.129412 0 0 0 0 0.203922 0 0 0 0.1 0"/><feBlend in2="BackgroundImageFix" result="effect1_dropShadow_121_4200"/><feBlend in="SourceGraphic" in2="effect1_dropShadow_121_4200" result="shape"/></filter><filter id="i" width="21.515" height="21.713" x="95.257" y="72.238" color-interpolation-filters="sRGB" filterUnits="userSpaceOnUse"><feFlood flood-opacity="0" result="BackgroundImageFix"/><feColorMatrix in="SourceAlpha" result="hardAlpha" values="0 0 0 0 0 0 0 0 0 0 0 0 0 0 0 0 0 0 127 0"/><feOffset dy=".661"/><feGaussianBlur stdDeviation="1.322"/><feColorMatrix values="0 0 0 0 0.129412 0 0 0 0 0.129412 0 0 0 0 0.203922 0 0 0 0.1 0"/><feBlend in2="BackgroundImageFix" result="effect1_dropShadow_121_4200"/><feBlend in="SourceGraphic" in2="effect1_dropShadow_121_4200" result="shape"/></filter></defs></svg>