<svg xmlns="http://www.w3.org/2000/svg" width="152" height="69" fill="none"><g clip-path="url(#a)"><path stroke="#EAEAEF" d="M4.40552 0C17.0721 16.8333 65.1057 51.9 151.906 53.5"/><g filter="url(#b)"><path fill="#F29D41" d="m96.7487 63.3789 11.2413-11.833c.283-.298.191-.785-.183-.956-.76-.347-1.942-.878-2.834-1.236-1.758-.707-2.751-1.117-4.583-1.627-1.7723-.494-2.7953-.665-4.6033-.954-.827-.133-1.938-.265-2.685-.3482-.406-.0453-.733.3202-.649.7192l3.384 15.978c.089.421.615.57.912.257Z"/></g><g filter="url(#c)"><path fill="#F29D41" d="m16.5165 31.134 14.3253-7.8218c.3609-.197.422-.6891.1183-.9663-.617-.5632-1.5792-1.4301-2.3188-2.0449-1.4573-1.2114-2.277-1.9057-3.865-2.9526-1.535-1.0119-2.457-1.4888-4.0891-2.3175-.7469-.3793-1.7636-.8452-2.4496-1.1537-.3721-.1673-.7961.0799-.8379.4858l-1.6721 16.2465c-.0441.4286.4106.731.7889.5245Z"/></g><g filter="url(#d)"><path fill="#5CB176" d="m.01278 17.7713 3.4725-15.94801c.0875-.4017.5425-.5989.8939-.3855.7141.4335 1.81691 1.1127 2.61501 1.6494 1.5727 1.0573 2.4697 1.6483 3.92131 2.8773 1.4031 1.1881 2.1202 1.9386 3.375 3.2713.5742.6099 1.3074 1.45441 1.7966 2.02581.2653.3099.1475.7863-.2303.9407L.73819 18.3806c-.3989.163-.8171-.1882-.7254-.6093Z"/></g><mask id="e" width="17" height="18" x="0" y="1" maskUnits="userSpaceOnUse" style="mask-type:alpha"><path fill="#5CB176" d="m.01278 17.7713 3.4725-15.94801c.0875-.4017.5425-.5989.8939-.3855.7142.4335 1.81691 1.11281 2.61501 1.64941 1.5727 1.0573 2.4697 1.6483 3.92131 2.8774 1.4032 1.188 2.1203 1.93849 3.375 3.27119.5742.61 1.3074 1.45441 1.7966 2.02581.2653.31.1475.7864-.2302.9407L.73819 18.3806c-.3989.163-.8171-.1882-.7254-.6093Z"/></mask><g stroke="#fff" stroke-linecap="round" stroke-width=".66101" mask="url(#e)"><path d="M11.3653 6.4043c-1.178 1.463-4.99704 4.379-10.84894 4.3392M8.32766 2.73047c-1.178 1.4629-4.997 4.379-10.8489 4.3392M14.3351 9.4209c-1.6148 1.7763-6.82111 5.3399-14.72841 5.3836M13.1318 13.8633c-1.7882 1.6015-5.61497 3.5675-13.48507 2.8008"/></g><g filter="url(#f)"><path fill="#7B79FF" d="m142.844 68.5873 7.65-14.418c.193-.363-.027-.808-.433-.872-.825-.13-2.106-.324-3.062-.43-1.883-.208-2.95-.337-4.852-.336-1.838.001-2.87.11-4.689.317-.833.095-1.938.266-2.68.386-.403.065-.621.505-.432.867l7.551 14.482c.199.382.745.384.947.004Z"/></g><g filter="url(#g)"><path fill="#7B79FF" d="m54.8003 51.2026-2.9602-16.0514c-.0746-.4043.2688-.762.6754-.701.8262.1239 2.1058.3242 3.0493.5107 1.8591.3674 2.9148.5659 4.7286 1.1385 1.7533.5535 2.7043.9686 4.3773 1.7129.765.3406 1.768.8361 2.439 1.1741.365.1833.44.6683.152.9566L55.7048 51.4836c-.3049.305-.8263.142-.9045-.281Z"/></g><g filter="url(#h)"><path fill="#EE5E52" d="m36.0352 43.3362 12.6682-10.2914c.3191-.2593.2899-.7543-.059-.9717-.709-.4419-1.8125-1.1198-2.6514-1.5902-1.653-.9269-2.585-1.4609-4.3366-2.2023-1.6931-.7166-2.6864-1.0182-4.4417-1.5371-.8034-.2374-1.8878-.511-2.6183-.6899-.3963-.0971-.7684.2229-.7358.6297l1.3036 16.2802c.0344.4296.5365.6444.871.3727Z"/></g><path fill="#fff" d="M40.8133 33.8438c.5388.0975 1.0547-.2602 1.1523-.799.0975-.5389-.2602-1.0548-.799-1.1523-.5389-.0976-1.0548.2601-1.1523.799-.0976.5388.2602 1.0547.799 1.1523ZM35.4737 37.8057c.5388.0975 1.0547-.2602 1.1523-.799.0976-.5389-.2602-1.0548-.799-1.1523-.5389-.0976-1.0548.2602-1.1523.799-.0976.5388.2602 1.0547.799 1.1523ZM35.4302 33.6914c.5389.0976 1.0548-.2601 1.1523-.799.0976-.5388-.2601-1.0547-.799-1.1523-.5388-.0975-1.0547.2602-1.1523.799-.0975.5389.2602 1.0548.799 1.1523ZM37.6329 41.1846c.5388.0976 1.0547-.2602 1.1523-.799.0975-.5389-.2602-1.0548-.799-1.1523-.5389-.0976-1.0548.2602-1.1523.799-.0976.5388.2601 1.0547.799 1.1523ZM37.418 29.1035c.5389.0976 1.0548-.2601 1.1523-.799.0976-.5388-.2601-1.0547-.799-1.1523-.5388-.0975-1.0547.2602-1.1523.799-.0975.5389.2602 1.0548.799 1.1523ZM44.7586 32.2842c.5389.0976 1.0548-.2602 1.1523-.799.0976-.5388-.2602-1.0548-.799-1.1523-.5388-.0976-1.0548.2602-1.1523.799-.0976.5389.2602 1.0548.799 1.1523ZM41.0582 38.3096c.5388.0976 1.0547-.2602 1.1523-.799.0975-.5389-.2602-1.0548-.799-1.1523-.5389-.0976-1.0548.2602-1.1524.799-.0975.5388.2602 1.0547.7991 1.1523ZM118.309 62.6538c.534-.1205.869-.6512.749-1.1854-.121-.5342-.651-.8696-1.186-.7491-.534.1205-.869.6512-.749 1.1854.121.5342.652.8696 1.186.7491Z"/><g filter="url(#i)"><path fill="#EE5E52" d="m120.712 67.2663 7.533-14.48c.19-.364-.034-.807-.44-.868-.827-.123-2.109-.307-3.066-.405-1.885-.193-2.952-.313-4.854-.297-1.839.016-2.87.134-4.687.356-.831.101-1.935.281-2.677.407-.402.069-.616.511-.425.871l7.669 14.42c.202.38.748.378.947-.004Z"/></g><path fill="#fff" d="M121.323 56.6563c.533-.1247.864-.658.739-1.1912-.124-.5332-.658-.8644-1.191-.7397-.533.1247-.864.658-.74 1.1912.125.5333.658.8644 1.192.7397ZM117.999 62.4141c.533-.1247.864-.658.739-1.1912-.124-.5332-.658-.8644-1.191-.7397-.533.1247-.864.658-.74 1.1913.125.5332.658.8643 1.192.7396ZM116.323 58.6563c.533-.1247.864-.658.739-1.1912-.124-.5332-.658-.8644-1.191-.7397-.533.1247-.864.658-.74 1.1912.125.5333.658.8644 1.192.7397ZM121.323 64.6563c.533-.1247.864-.658.739-1.1912-.124-.5332-.658-.8644-1.191-.7397-.533.1247-.864.658-.74 1.1912.125.5333.658.8644 1.192.7397ZM116.323 53.6563c.533-.1247.864-.658.739-1.1912-.124-.5332-.658-.8644-1.191-.7397-.533.1247-.864.658-.74 1.1912.125.5333.658.8644 1.192.7397ZM124.323 53.6563c.533-.1247.864-.658.739-1.1912-.124-.5332-.658-.8644-1.191-.7397-.533.1247-.864.658-.74 1.1912.125.5333.658.8644 1.192.7397ZM123.323 60.6563c.533-.1247.864-.658.739-1.1912-.124-.5332-.658-.8644-1.191-.7397-.533.1247-.864.658-.74 1.1912.125.5333.658.8644 1.192.7397Z"/><g filter="url(#j)"><path fill="#5CB176" d="m76.3018 58.736 11.378-11.702c.286-.295.2-.7828-.172-.958-.756-.3559-1.931-.9002-2.819-1.2693-1.75-.7273-2.738-1.1487-4.565-1.6802-1.765-.5138-2.787-.6972-4.591-1.0073-.825-.1419-1.934-.2869-2.681-.3792-.405-.05-.737.3113-.657.7115l3.198 16.0165c.084.422.608.577.909.268Z"/></g><mask id="k" width="16" height="18" x="72" y="41" maskUnits="userSpaceOnUse" style="mask-type:alpha"><path fill="#5CB176" d="m76.3008 58.7359 11.379-11.702c.286-.294.199-.7827-.172-.9579-.756-.3559-1.932-.9002-2.82-1.2693-1.75-.7273-2.738-1.1487-4.564-1.6802-1.765-.5137-2.787-.6972-4.591-1.0073-.825-.1419-1.934-.2869-2.681-.3792-.405-.05-.737.3113-.657.7115l3.198 16.0164c.084.422.608.577.908.268Z"/></mask><g stroke="#fff" stroke-linecap="round" stroke-width=".66101" mask="url(#k)"><path d="M79.5088 42.9951c-.57 1.79-.892 6.5842 2.373 11.4412M84.2489 43.499c-.569 1.79-.891 6.5843 2.373 11.4413M75.3549 42.1846c-.59 2.3272-.686 8.6356 3.644 15.2516M72.3149 45.6406c-.348 2.3751.126 6.6511 5.111 12.7891"/></g></g><defs><filter id="b" width="21.0039" height="22.4131" x="89.7954" y="44.4379" color-interpolation-filters="sRGB" filterUnits="userSpaceOnUse"><feFlood flood-opacity="0" result="BackgroundImageFix"/><feColorMatrix in="SourceAlpha" result="hardAlpha" values="0 0 0 0 0 0 0 0 0 0 0 0 0 0 0 0 0 0 127 0"/><feOffset dy=".66101"/><feGaussianBlur stdDeviation="1.32203"/><feColorMatrix values="0 0 0 0 0.129412 0 0 0 0 0.129412 0 0 0 0 0.203922 0 0 0 0.1 0"/><feBlend in2="BackgroundImageFix" result="effect1_dropShadow_161_3960"/><feBlend in="SourceGraphic" in2="effect1_dropShadow_161_3960" result="shape"/></filter><filter id="c" width="20.7183" height="22.6641" x="13.0805" y="11.8412" color-interpolation-filters="sRGB" filterUnits="userSpaceOnUse"><feFlood flood-opacity="0" result="BackgroundImageFix"/><feColorMatrix in="SourceAlpha" result="hardAlpha" values="0 0 0 0 0 0 0 0 0 0 0 0 0 0 0 0 0 0 127 0"/><feOffset dy=".66101"/><feGaussianBlur stdDeviation="1.32203"/><feColorMatrix values="0 0 0 0 0.129412 0 0 0 0 0.129412 0 0 0 0 0.203922 0 0 0 0.1 0"/><feBlend in2="BackgroundImageFix" result="effect1_dropShadow_161_3960"/><feBlend in="SourceGraphic" in2="effect1_dropShadow_161_3960" result="shape"/></filter><filter id="d" width="21.5186" height="22.3584" x="-2.64406" y="-.63246" color-interpolation-filters="sRGB" filterUnits="userSpaceOnUse"><feFlood flood-opacity="0" result="BackgroundImageFix"/><feColorMatrix in="SourceAlpha" result="hardAlpha" values="0 0 0 0 0 0 0 0 0 0 0 0 0 0 0 0 0 0 127 0"/><feOffset dy=".66101"/><feGaussianBlur stdDeviation="1.32203"/><feColorMatrix values="0 0 0 0 0.129412 0 0 0 0 0.129412 0 0 0 0 0.203922 0 0 0 0.1 0"/><feBlend in2="BackgroundImageFix" result="effect1_dropShadow_161_3960"/><feBlend in="SourceGraphic" in2="effect1_dropShadow_161_3960" result="shape"/></filter><filter id="f" width="21.576" height="21.628" x="131.633" y="50.5482" color-interpolation-filters="sRGB" filterUnits="userSpaceOnUse"><feFlood flood-opacity="0" result="BackgroundImageFix"/><feColorMatrix in="SourceAlpha" result="hardAlpha" values="0 0 0 0 0 0 0 0 0 0 0 0 0 0 0 0 0 0 127 0"/><feOffset dy=".66101"/><feGaussianBlur stdDeviation="1.32203"/><feColorMatrix values="0 0 0 0 0.129412 0 0 0 0 0.129412 0 0 0 0 0.203922 0 0 0 0.1 0"/><feBlend in2="BackgroundImageFix" result="effect1_dropShadow_161_3960"/><feBlend in="SourceGraphic" in2="effect1_dropShadow_161_3960" result="shape"/></filter><filter id="g" width="20.8963" height="22.4854" x="49.1858" y="32.4603" color-interpolation-filters="sRGB" filterUnits="userSpaceOnUse"><feFlood flood-opacity="0" result="BackgroundImageFix"/><feColorMatrix in="SourceAlpha" result="hardAlpha" values="0 0 0 0 0 0 0 0 0 0 0 0 0 0 0 0 0 0 127 0"/><feOffset dy=".66101"/><feGaussianBlur stdDeviation="1.32203"/><feColorMatrix values="0 0 0 0 0.129412 0 0 0 0 0.129412 0 0 0 0 0.203922 0 0 0 0.1 0"/><feBlend in2="BackgroundImageFix" result="effect1_dropShadow_161_3960"/><feBlend in="SourceGraphic" in2="effect1_dropShadow_161_3960" result="shape"/></filter><filter id="h" width="20.355" height="22.709" x="31.2146" y="24.0531" color-interpolation-filters="sRGB" filterUnits="userSpaceOnUse"><feFlood flood-opacity="0" result="BackgroundImageFix"/><feColorMatrix in="SourceAlpha" result="hardAlpha" values="0 0 0 0 0 0 0 0 0 0 0 0 0 0 0 0 0 0 127 0"/><feOffset dy=".66101"/><feGaussianBlur stdDeviation="1.32203"/><feColorMatrix values="0 0 0 0 0.129412 0 0 0 0 0.129412 0 0 0 0 0.203922 0 0 0 0.1 0"/><feBlend in2="BackgroundImageFix" result="effect1_dropShadow_161_3960"/><feBlend in="SourceGraphic" in2="effect1_dropShadow_161_3960" result="shape"/></filter><filter id="i" width="21.5764" height="21.627" x="109.381" y="49.2318" color-interpolation-filters="sRGB" filterUnits="userSpaceOnUse"><feFlood flood-opacity="0" result="BackgroundImageFix"/><feColorMatrix in="SourceAlpha" result="hardAlpha" values="0 0 0 0 0 0 0 0 0 0 0 0 0 0 0 0 0 0 127 0"/><feOffset dy=".66101"/><feGaussianBlur stdDeviation="1.32203"/><feColorMatrix values="0 0 0 0 0.129412 0 0 0 0 0.129412 0 0 0 0 0.203922 0 0 0 0.1 0"/><feBlend in2="BackgroundImageFix" result="effect1_dropShadow_161_3960"/><feBlend in="SourceGraphic" in2="effect1_dropShadow_161_3960" result="shape"/></filter><filter id="j" width="20.9554" height="22.4512" x="69.5388" y="39.7523" color-interpolation-filters="sRGB" filterUnits="userSpaceOnUse"><feFlood flood-opacity="0" result="BackgroundImageFix"/><feColorMatrix in="SourceAlpha" result="hardAlpha" values="0 0 0 0 0 0 0 0 0 0 0 0 0 0 0 0 0 0 127 0"/><feOffset dy=".66101"/><feGaussianBlur stdDeviation="1.32203"/><feColorMatrix values="0 0 0 0 0.129412 0 0 0 0 0.129412 0 0 0 0 0.203922 0 0 0 0.1 0"/><feBlend in2="BackgroundImageFix" result="effect1_dropShadow_161_3960"/><feBlend in="SourceGraphic" in2="effect1_dropShadow_161_3960" result="shape"/></filter><clipPath id="a"><path fill="#fff" d="M0 0h152v69H0z"/></clipPath></defs></svg>