<?xml version="1.0" encoding="UTF-8"?>
<svg width="25px" height="28px" viewBox="0 0 25 28" version="1.1" xmlns="http://www.w3.org/2000/svg" xmlns:xlink="http://www.w3.org/1999/xlink">
    <!-- Generator: Sketch 46.1 (44463) - http://www.bohemiancoding.com/sketch -->
    <title>GraphQL_Logo</title>
    <desc>Created with Sketch.</desc>
    <defs></defs>
    <g id="Pages" stroke="none" stroke-width="1" fill="none" fill-rule="evenodd">
        <g id="List-plugins" transform="translate(-302.000000, -668.000000)" fill-rule="nonzero" fill="#E535AB">
            <g id="Container" transform="translate(263.000000, 83.000000)">
                <g id="Content">
                    <g id="Forms" transform="translate(1.000000, 78.000000)">
                        <g id="List" transform="translate(15.000000, 19.000000)">
                            <g id="9" transform="translate(0.000000, 484.000000)">
                                <g id="GraphQL_Logo" transform="translate(23.000000, 4.000000)">
                                    <rect id="Rectangle-path" transform="translate(7.525343, 11.130007) rotate(-149.999272) translate(-7.525343, -11.130007) " x="6.93249876" y="-0.309026904" width="1.1856882" height="22.8780681"></rect>
                                    <rect id="Rectangle-path" x="1.05714286" y="19.1571429" width="22.8785714" height="1.18571429"></rect>
                                    <rect id="Rectangle-path" transform="translate(7.528064, 22.613421) rotate(-149.999272) translate(-7.528064, -22.613421) " x="0.921066787" y="22.0205773" width="13.213995" height="1.1856882"></rect>
                                    <rect id="Rectangle-path" transform="translate(17.469093, 5.393493) rotate(-149.999272) translate(-17.469093, -5.393493) " x="10.8620954" y="4.80064876" width="13.213995" height="1.1856882"></rect>
                                    <rect id="Rectangle-path" transform="translate(7.531236, 5.388979) rotate(-120.000728) translate(-7.531236, -5.388979) " x="6.93839161" y="-1.21801893" width="1.1856882" height="13.213995"></rect>
                                    <rect id="Rectangle-path" transform="translate(17.477229, 11.130221) rotate(-120.000728) translate(-17.477229, -11.130221) " x="6.03819452" y="10.5373773" width="22.8780681" height="1.1856882"></rect>
                                    <rect id="Rectangle-path" x="1.96428571" y="7.39285714" width="1.18571429" height="13.2142857"></rect>
                                    <rect id="Rectangle-path" x="21.85" y="7.39285714" width="1.18571429" height="13.2142857"></rect>
                                    <rect id="Rectangle-path" transform="translate(17.469043, 22.606829) rotate(-120.000728) translate(-17.469043, -22.606829) " x="16.9511971" y="16.8605264" width="1.0356915" height="11.4926043"></rect>
                                    <path d="M24.6071429,20.9928571 C23.9214286,22.1857143 22.3928571,22.5928571 21.2,21.9071429 C20.0071429,21.2214286 19.6,19.6928571 20.2857143,18.5 C20.9714286,17.3071429 22.5,16.9 23.6928571,17.5857143 C24.8928571,18.2785714 25.3,19.8 24.6071429,20.9928571" id="Shape"></path>
                                    <path d="M4.70714286,9.5 C4.02142857,10.6928571 2.49285714,11.1 1.3,10.4142857 C0.107142857,9.72857143 -0.3,8.2 0.385714286,7.00714286 C1.07142857,5.81428571 2.6,5.40714286 3.79285714,6.09285714 C4.98571429,6.78571429 5.39285714,8.30714286 4.70714286,9.5" id="Shape"></path>
                                    <path d="M0.392857143,20.9928571 C-0.292857143,19.8 0.114285714,18.2785714 1.30714286,17.5857143 C2.5,16.9 4.02142857,17.3071429 4.71428571,18.5 C5.4,19.6928571 4.99285714,21.2142857 3.8,21.9071429 C2.6,22.5928571 1.07857143,22.1857143 0.392857143,20.9928571" id="Shape"></path>
                                    <path d="M20.2928571,9.5 C19.6071429,8.30714286 20.0142857,6.78571429 21.2071429,6.09285714 C22.4,5.40714286 23.9214286,5.81428571 24.6142857,7.00714286 C25.3,8.2 24.8928571,9.72142857 23.7,10.4142857 C22.5071429,11.1 20.9785714,10.6928571 20.2928571,9.5" id="Shape"></path>
                                    <path d="M12.5,27.9857143 C11.1214286,27.9857143 10.0071429,26.8714286 10.0071429,25.4928571 C10.0071429,24.1142857 11.1214286,23 12.5,23 C13.8785714,23 14.9928571,24.1142857 14.9928571,25.4928571 C14.9928571,26.8642857 13.8785714,27.9857143 12.5,27.9857143" id="Shape"></path>
                                    <path d="M12.5,5 C11.1214286,5 10.0071429,3.88571429 10.0071429,2.50714286 C10.0071429,1.12857143 11.1214286,0.0142857143 12.5,0.0142857143 C13.8785714,0.0142857143 14.9928571,1.12857143 14.9928571,2.50714286 C14.9928571,3.88571429 13.8785714,5 12.5,5" id="Shape"></path>
                                </g>
                            </g>
                        </g>
                    </g>
                </g>
            </g>
        </g>
    </g>
</svg>