<?xml version="1.0" encoding="UTF-8"?>
<svg width="1078px" height="229px" viewBox="0 0 1078 229" version="1.1" xmlns="http://www.w3.org/2000/svg" xmlns:xlink="http://www.w3.org/1999/xlink">
    <!-- Generator: Sketch 46.2 (44496) - http://www.bohemiancoding.com/sketch -->
    <title>Empty</title>
    <desc>Created with Sketch.</desc>
    <defs>
        <rect id="path-1" x="-5.68434189e-14" y="0" width="1070" height="221" rx="2"></rect>
        <filter x="-0.7%" y="-2.3%" width="101.3%" height="106.3%" filterUnits="objectBoundingBox" id="filter-3">
            <feOffset dx="0" dy="2" in="SourceAlpha" result="shadowOffsetOuter1"></feOffset>
            <feGaussianBlur stdDeviation="2" in="shadowOffsetOuter1" result="shadowBlurOuter1"></feGaussianBlur>
            <feColorMatrix values="0 0 0 0 0.890196078   0 0 0 0 0.91372549   0 0 0 0 0.952941176  0 0 0 1 0" type="matrix" in="shadowBlurOuter1"></feColorMatrix>
        </filter>
    </defs>
    <g id="Pages" stroke="none" stroke-width="1" fill="none" fill-rule="evenodd">
        <g id="Content-Type-Builder---Home-view" transform="translate(-260.000000, -159.000000)">
            <g id="Container" transform="translate(263.000000, 83.000000)">
                <g id="Content">
                    <g id="Empty" transform="translate(1.000000, 78.000000)">
                        <mask id="mask-2" fill="white">
                            <use xlink:href="#path-1"></use>
                        </mask>
                        <g id="Background">
                            <use fill="black" fill-opacity="1" filter="url(#filter-3)" xlink:href="#path-1"></use>
                            <use fill="#FFFFFF" fill-rule="evenodd" xlink:href="#path-1"></use>
                        </g>
                        <rect id="Rectangle-9" stroke="#E3E3E5" stroke-width="2" mask="url(#mask-2)" x="313" y="67" width="8" height="8" rx="4"></rect>
                        <rect id="Rectangle-9" stroke="#E3E3E5" stroke-width="2" mask="url(#mask-2)" x="243" y="117" width="4" height="4" rx="2"></rect>
                        <rect id="Rectangle-9" stroke="#E3E3E5" stroke-width="2" mask="url(#mask-2)" x="333" y="217" width="2" height="2" rx="1"></rect>
                        <rect id="Rectangle-9" fill="#F0F0F3" mask="url(#mask-2)" x="222" y="196" width="12" height="12" rx="5"></rect>
                        <rect id="Rectangle-9" stroke="#E3E3E5" stroke-width="2" mask="url(#mask-2)" x="363" y="147" width="10" height="10" rx="5"></rect>
                        <rect id="Rectangle-9" stroke="#E3E3E5" stroke-width="2" mask="url(#mask-2)" x="753" y="157" width="12" height="12" rx="6"></rect>
                        <rect id="Rectangle-9" stroke="#E3E3E5" stroke-width="2" mask="url(#mask-2)" x="863" y="97" width="5" height="5" rx="2.5"></rect>
                        <rect id="Rectangle-9" stroke="#E3E3E5" stroke-width="2" mask="url(#mask-2)" x="663" y="197" width="3" height="3" rx="1.5"></rect>
                        <rect id="Rectangle-9" fill="#F0F0F3" mask="url(#mask-2)" x="742" y="56" width="10" height="10" rx="5"></rect>
                        <rect id="Rectangle-9" fill="#F0F0F3" mask="url(#mask-2)" x="442" y="176" width="9" height="9" rx="4.5"></rect>
                        <g id="star" mask="url(#mask-2)" fill-rule="nonzero" fill="#E3E3E5">
                            <g transform="translate(629.000000, 121.000000)" id="Shape">
                                <path d="M10,3.69591346 C10,3.78405449 9.94791667,3.88020833 9.84375,3.984375 L7.66225962,6.11177885 L8.17908654,9.11658654 C8.18309295,9.14463141 8.18509615,9.18469551 8.18509615,9.23677885 C8.18509615,9.32091346 8.1640625,9.39202724 8.12199519,9.45012019 C8.07992788,9.50821314 8.01883013,9.53725962 7.93870192,9.53725962 C7.86258013,9.53725962 7.78245192,9.51322115 7.69831731,9.46514423 L5,8.046875 L2.30168269,9.46514423 C2.21354167,9.51322115 2.13341346,9.53725962 2.06129808,9.53725962 C1.97716346,9.53725962 1.9140625,9.50821314 1.87199519,9.45012019 C1.82992788,9.39202724 1.80889423,9.32091346 1.80889423,9.23677885 C1.80889423,9.21274038 1.81290064,9.17267628 1.82091346,9.11658654 L2.33774038,6.11177885 L0.150240385,3.984375 C0.0500801282,3.87620192 0,3.78004808 0,3.69591346 C0,3.54767628 0.112179487,3.45552885 0.336538462,3.41947115 L3.35336538,2.98076923 L4.70552885,0.246394231 C4.78165064,0.0821314103 4.87980769,0 5,0 C5.12019231,0 5.21834936,0.0821314103 5.29447115,0.246394231 L6.64663462,2.98076923 L9.66346154,3.41947115 C9.88782051,3.45552885 10,3.54767628 10,3.69591346 Z"></path>
                            </g>
                        </g>
                        <g id="star" mask="url(#mask-2)" fill-rule="nonzero" fill="#E3E3E5">
                            <g transform="translate(389.000000, 1.000000)" id="Shape">
                                <path d="M10,3.69591346 C10,3.78405449 9.94791667,3.88020833 9.84375,3.984375 L7.66225962,6.11177885 L8.17908654,9.11658654 C8.18309295,9.14463141 8.18509615,9.18469551 8.18509615,9.23677885 C8.18509615,9.32091346 8.1640625,9.39202724 8.12199519,9.45012019 C8.07992788,9.50821314 8.01883013,9.53725962 7.93870192,9.53725962 C7.86258013,9.53725962 7.78245192,9.51322115 7.69831731,9.46514423 L5,8.046875 L2.30168269,9.46514423 C2.21354167,9.51322115 2.13341346,9.53725962 2.06129808,9.53725962 C1.97716346,9.53725962 1.9140625,9.50821314 1.87199519,9.45012019 C1.82992788,9.39202724 1.80889423,9.32091346 1.80889423,9.23677885 C1.80889423,9.21274038 1.81290064,9.17267628 1.82091346,9.11658654 L2.33774038,6.11177885 L0.150240385,3.984375 C0.0500801282,3.87620192 0,3.78004808 0,3.69591346 C0,3.54767628 0.112179487,3.45552885 0.336538462,3.41947115 L3.35336538,2.98076923 L4.70552885,0.246394231 C4.78165064,0.0821314103 4.87980769,0 5,0 C5.12019231,0 5.21834936,0.0821314103 5.29447115,0.246394231 L6.64663462,2.98076923 L9.66346154,3.41947115 C9.88782051,3.45552885 10,3.54767628 10,3.69591346 Z"></path>
                            </g>
                        </g>
                    </g>
                </g>
            </g>
        </g>
    </g>
</svg>