<svg xmlns="http://www.w3.org/2000/svg" width="70" height="40" viewBox="0 0 70 40"><style>.st1{fill:#fff}</style><path fill="#f8b195" d="M67 40H3c-1.6 0-3-1.3-3-3V3c0-1.6 1.4-3 3-3h64c1.7 0 3 1.4 3 3v34c0 1.7-1.3 3-3 3z"/><circle cx="22" cy="10" r="2" class="st1"/><circle cx="22" cy="20" r="2" class="st1"/><circle cx="22" cy="30" r="2" class="st1"/><path d="M49 12H28c-1.1 0-2-.9-2-2s.9-2 2-2h21c1.1 0 2 .9 2 2s-.9 2-2 2zM49 22H28c-1.1 0-2-.9-2-2s.9-2 2-2h21c1.1 0 2 .9 2 2s-.9 2-2 2zM49 32H28c-1.1 0-2-.9-2-2s.9-2 2-2h21c1.1 0 2 .9 2 2s-.9 2-2 2z" class="st1"/></svg>
