<?xml version="1.0" encoding="UTF-8"?>
<svg width="41px" height="41px" viewBox="0 0 41 41" version="1.1" xmlns="http://www.w3.org/2000/svg" xmlns:xlink="http://www.w3.org/1999/xlink">
    <!-- Generator: Sketch 46.2 (44496) - http://www.bohemiancoding.com/sketch -->
    <title>Many-to-many</title>
    <desc>Created with Sketch.</desc>
    <defs>
        <rect id="path-1" x="0" y="0" width="41" height="41" rx="2"></rect>
    </defs>
    <g id="Pages" stroke="none" stroke-width="1" fill="none" fill-rule="evenodd">
        <g id="Content-Type-Builder---Content-Type-view" transform="translate(-856.000000, -389.000000)">
            <g id="Container">
                <g id="Content">
                    <g id="Popup---Add-New-Relation---Define-Relation" transform="translate(427.000000, 230.000000)">
                        <g id="Many-to-many" transform="translate(449.500000, 179.500000) scale(-1, 1) translate(-449.500000, -179.500000) translate(429.000000, 159.000000)">
                            <g id="Rectangle-13">
                                <use fill="#FFFFFF" fill-rule="evenodd" xlink:href="#path-1"></use>
                                <rect stroke="#1C5DE7" stroke-width="1" x="0.5" y="0.5" width="40" height="40" rx="2"></rect>
                            </g>
                            <rect id="Rectangle-15" stroke="#1C5DE7" x="13.5" y="20.5" width="13" height="1"></rect>
                            <rect id="Rectangle-15" stroke="#1C5DE7" transform="translate(20.000000, 15.750000) rotate(-26.000000) translate(-20.000000, -15.750000) " x="12.5" y="15.5" width="15" height="1"></rect>
                            <rect id="Rectangle-14" stroke="#1C5DE7" x="27.5" y="17.5" width="6" height="6" rx="3"></rect>
                            <rect id="Rectangle-14" stroke="#1C5DE7" x="27.5" y="8.5" width="6" height="6" rx="3"></rect>
                            <rect id="Rectangle-15" stroke="#1C5DE7" transform="translate(20.000000, 25.750000) scale(-1, 1) rotate(-26.000000) translate(-20.000000, -25.750000) " x="12.5" y="25.5" width="15" height="1"></rect>
                            <rect id="Rectangle-14" stroke="#1C5DE7" transform="translate(30.500000, 29.500000) scale(-1, 1) translate(-30.500000, -29.500000) " x="27.5" y="26.5" width="6" height="6" rx="3"></rect>
                            <rect id="Rectangle-15" stroke="#1C5DE7" transform="translate(20.371276, 15.750000) scale(1, -1) rotate(-26.000000) translate(-20.371276, -15.750000) " x="12.8712765" y="15.5" width="15" height="1"></rect>
                            <rect id="Rectangle-14" stroke="#1C5DE7" transform="translate(9.871276, 20.500000) scale(1, -1) translate(-9.871276, -20.500000) " x="6.87127648" y="17.5" width="6" height="6" rx="3"></rect>
                            <rect id="Rectangle-14" stroke="#1C5DE7" transform="translate(9.871276, 11.500000) scale(1, -1) translate(-9.871276, -11.500000) " x="6.87127648" y="8.5" width="6" height="6" rx="3"></rect>
                            <rect id="Rectangle-15" stroke="#1C5DE7" transform="translate(19.944907, 25.957954) rotate(-26.000000) translate(-19.944907, -25.957954) " x="11.9705269" y="25.7079544" width="15.9487597" height="1"></rect>
                            <rect id="Rectangle-14" stroke="#1C5DE7" transform="translate(9.871276, 29.500000) scale(1, -1) translate(-9.871276, -29.500000) " x="6.87127648" y="26.5" width="6" height="6" rx="3"></rect>
                        </g>
                    </g>
                </g>
            </g>
        </g>
    </g>
</svg>