<?xml version="1.0" encoding="UTF-8"?>
<svg width="41px" height="41px" viewBox="0 0 41 41" version="1.1" xmlns="http://www.w3.org/2000/svg" xmlns:xlink="http://www.w3.org/1999/xlink">
    <!-- Generator: Sketch 46.2 (44496) - http://www.bohemiancoding.com/sketch -->
    <title>Many-to-one</title>
    <desc>Created with Sketch.</desc>
    <defs>
        <rect id="path-1" x="0" y="0" width="41" height="41" rx="2"></rect>
    </defs>
    <g id="Pages" stroke="none" stroke-width="1" fill="none" fill-rule="evenodd">
        <g id="Content-Type-Builder---Content-Type-view" transform="translate(-806.000000, -389.000000)">
            <g id="Container">
                <g id="Content">
                    <g id="Popup---Add-New-Relation---Define-Relation" transform="translate(427.000000, 230.000000)">
                        <g id="Many-to-one" transform="translate(399.500000, 179.500000) scale(-1, 1) translate(-399.500000, -179.500000) translate(379.000000, 159.000000)">
                            <g id="Rectangle-13">
                                <use fill="#FFFFFF" fill-rule="evenodd" xlink:href="#path-1"></use>
                                <rect stroke-opacity="0.1" stroke="#101622" stroke-width="1" x="0.5" y="0.5" width="40" height="40" rx="2"></rect>
                            </g>
                            <rect id="Rectangle-15" stroke="#919BAE" x="13.5" y="21.25" width="13" height="1"></rect>
                            <rect id="Rectangle-15" stroke="#919BAE" transform="translate(19.750000, 16.249833) rotate(-26.000000) translate(-19.750000, -16.249833) " x="11.5" y="15.9998333" width="16.5" height="1"></rect>
                            <rect id="Rectangle-14" stroke="#919BAE" x="6.5" y="18.5" width="6" height="6" rx="3"></rect>
                            <rect id="Rectangle-14" stroke="#919BAE" x="27.5" y="18.5" width="6" height="6" rx="3"></rect>
                            <rect id="Rectangle-14" stroke="#919BAE" x="27.5" y="8.5" width="6" height="6" rx="3"></rect>
                            <rect id="Rectangle-15" stroke="#919BAE" transform="translate(19.750000, 26.750000) scale(-1, 1) rotate(-26.000000) translate(-19.750000, -26.750000) " x="11.5" y="26.5" width="16.5" height="1"></rect>
                            <rect id="Rectangle-14" stroke="#919BAE" transform="translate(30.500000, 31.500000) scale(-1, 1) translate(-30.500000, -31.500000) " x="27.5" y="28.5" width="6" height="6" rx="3"></rect>
                        </g>
                    </g>
                </g>
            </g>
        </g>
    </g>
</svg>