<?xml version="1.0" encoding="UTF-8"?>
<svg width="250px" height="221px" viewBox="0 0 250 221" version="1.1" xmlns="http://www.w3.org/2000/svg" xmlns:xlink="http://www.w3.org/1999/xlink">
    <!-- Generator: Sketch 46.2 (44496) - http://www.bohemiancoding.com/sketch -->
    <title>paint-brush</title>
    <desc>Created with Sketch.</desc>
    <defs></defs>
    <g id="Pages" stroke="none" stroke-width="1" fill="none" fill-rule="evenodd" opacity="0.5">
        <g id="Content-Type-Builder---Home-view" transform="translate(-289.000000, -161.000000)" fill-rule="nonzero" fill="#F3F3F4">
            <g id="Container" transform="translate(263.000000, 83.000000)">
                <g id="Content">
                    <g id="Empty" transform="translate(1.000000, 78.000000)">
                        <g id="Background-image">
                            <g id="paint-brush" transform="translate(25.000000, -12.000000)">
                                <path d="M225.558659,0 C232.07635,0 237.77933,2.16480447 242.667598,6.49441341 C247.555866,10.8240223 250,16.2476723 250,22.7653631 C250,28.6312849 247.905028,35.6610801 243.715084,43.8547486 C212.802607,102.420857 191.154562,137.430168 178.77095,148.882682 C169.739292,157.35568 159.590317,161.592179 148.324022,161.592179 C136.592179,161.592179 126.513035,157.285847 118.086592,148.673184 C109.660149,140.060521 105.446927,129.841713 105.446927,118.01676 C105.446927,106.098696 109.729981,96.2290503 118.296089,88.4078212 L207.402235,7.54189944 C212.895717,2.51396648 218.947858,0 225.558659,0 Z M98.603352,144.413408 C102.234637,151.489758 107.192737,157.541899 113.477654,162.569832 C119.76257,167.597765 126.769088,171.13594 134.497207,173.184358 L134.636872,183.100559 C135.009311,202.932961 128.980447,219.087523 116.550279,231.564246 C104.120112,244.040968 87.8957169,250.27933 67.877095,250.27933 C56.424581,250.27933 46.2756052,248.114525 37.4301676,243.784916 C28.58473,239.455307 21.4851024,233.519553 16.1312849,225.977654 C10.7774674,218.435754 6.75046555,209.916201 4.05027933,200.418994 C1.35009311,190.921788 0,180.679702 0,169.692737 C0.651769088,170.158287 2.56052142,171.554935 5.72625698,173.882682 C8.89199255,176.210428 11.7783985,178.282123 14.3854749,180.097765 C16.9925512,181.913408 19.7392924,183.612663 22.6256983,185.195531 C25.5121043,186.778399 27.6536313,187.569832 29.0502793,187.569832 C32.867784,187.569832 35.4283054,185.8473 36.7318436,182.402235 C39.0595903,176.256983 41.7364991,171.019553 44.7625698,166.689944 C47.7886406,162.360335 51.0242086,158.82216 54.4692737,156.075419 C57.9143389,153.328678 62.0111732,151.117318 66.7597765,149.441341 C71.5083799,147.765363 76.3035382,146.578212 81.1452514,145.879888 C85.9869646,145.181564 91.8063315,144.692737 98.603352,144.413408 Z" id="Shape"></path>
                            </g>
                        </g>
                    </g>
                </g>
            </g>
        </g>
    </g>
</svg>