<svg xmlns="http://www.w3.org/2000/svg" viewBox="0 0 447.373 124.856"><path d="M59.392 84.949L45.274 93.1m61.279-23.138L87.322 81l.029.049-14.076 7.995-13.925-3.939m-14.004 32.174l.014-24.031-.014 24.031 9.18 5.297 52.05-30.117M23.329 55.09L2.404 43.016m28.999 21.498l-6.961 4.018m11.863 4.472L22.948 80.65m18.287.894l-16.108 9.037m15.234-57.632l-2.886 14.039M86.84 34.679l7.96 4.553-.008 9.219-7.948 4.589-7.939-4.631-.012-9.142zm19.713 35.283l9.824-5.671.065-37.62-32.514-18.81-43.505 24.83M54.38 2.28L2.28 32.425l.124 10.591m35.043 3.923L23.329 55.09" fill="none" stroke="#215cea" stroke-linecap="round" stroke-linejoin="round" stroke-width="4.56"/><path d="M217.23 70.167a16.674 16.674 0 0 1-6.96 13.944 23.419 23.419 0 0 1-7.656 3.587 36.216 36.216 0 0 1-9.628 1.215 51.307 51.307 0 0 1-9.57-.987 44.292 44.292 0 0 1-8.99-2.61l2.32-11.252a47.382 47.382 0 0 0 7.656 2.378 37.023 37.023 0 0 0 8.004.87 16.16 16.16 0 0 0 6.554-1.16 4.19 4.19 0 0 0 2.61-4.176 4.056 4.056 0 0 0-2.553-3.886q-2.552-1.218-6.727-2.959-3.367-1.391-6.496-2.84a23.814 23.814 0 0 1-5.51-3.48 16.169 16.169 0 0 1-3.828-4.757 14.309 14.309 0 0 1-1.45-6.786 16.434 16.434 0 0 1 1.682-7.656 14.719 14.719 0 0 1 4.64-5.336 21.237 21.237 0 0 1 6.96-3.132 34.133 34.133 0 0 1 8.641-1.044 48.31 48.31 0 0 1 9.338.88 31.134 31.134 0 0 1 8.643 3.104l-2.437 11.328a47.347 47.347 0 0 0-7.017-2.494 28.209 28.209 0 0 0-7.366-.986 15.901 15.901 0 0 0-5.394.752 3.048 3.048 0 0 0-2.03 3.183 3.707 3.707 0 0 0 2.435 3.471q2.436 1.158 5.801 2.66 2.436 1.044 5.626 2.373a27.855 27.855 0 0 1 5.974 3.415 20.364 20.364 0 0 1 4.756 5.033 12.945 12.945 0 0 1 1.972 7.348zM219.087 31.26h9.164V16.644h15.891V31.26h16.937v12.412h-16.937v24.245a11.726 11.726 0 0 0 1.45 6.263q1.45 2.322 5.743 2.32a28.445 28.445 0 0 0 8.584-1.276l1.16 11.252a32.326 32.326 0 0 1-6.381 1.74 42.634 42.634 0 0 1-7.655.697 21.308 21.308 0 0 1-8.643-1.567 15.322 15.322 0 0 1-5.8-4.35 17.812 17.812 0 0 1-3.305-6.495 29.903 29.903 0 0 1-1.044-8.121V43.672h-9.164zM303.3 44.832h-2.668a23.137 23.137 0 0 0-9.859 1.856 15.077 15.077 0 0 0-6.265 5.336v35.729h-15.891V31.26h15.311v9.976a15.79 15.79 0 0 1 5.162-7.772q3.538-2.784 9.454-2.784a17.838 17.838 0 0 1 4.756.58zM339.725 81.72a28.045 28.045 0 0 1-7.54 5.104 23.604 23.604 0 0 1-10.208 2.089 17.8 17.8 0 0 1-6.727-1.219 14.668 14.668 0 0 1-5.105-3.363 15.292 15.292 0 0 1-3.248-5.047 17.02 17.02 0 0 1-1.16-6.38q0-7.771 5.22-11.832 5.22-4.06 14.268-4.64 3.48-.231 7.193-.348 3.71-.114 6.727-.232V53.88q0-5.45-2.668-8.294-2.669-2.841-8.351-2.842a32.492 32.492 0 0 0-8.353 1.044 31.835 31.835 0 0 0-6.96 2.668l-3.132-11.136a37.516 37.516 0 0 1 9.744-3.886A47.28 47.28 0 0 1 330.91 30.1q11.251 0 17.69 6.148 6.438 6.15 6.439 18.212v33.293h-15.313zm-11.948-3.596a16.699 16.699 0 0 0 6.265-1.16 20.378 20.378 0 0 0 5.103-2.9v-8.933q-2.436.235-5.22.465-2.784.235-5.104.58a14.924 14.924 0 0 0-5.567 1.914 4.888 4.888 0 0 0-2.088 4.466 4.949 4.949 0 0 0 1.797 4.176 7.65 7.65 0 0 0 4.814 1.392zM366.753 31.26h15.196v7.192a20.668 20.668 0 0 1 6.96-6.09 21.187 21.187 0 0 1 10.208-2.262 20.456 20.456 0 0 1 9.28 2.088 20.833 20.833 0 0 1 7.134 5.858 27.726 27.726 0 0 1 4.582 9.048 39.976 39.976 0 0 1 1.624 11.774 33.714 33.714 0 0 1-2.32 12.933 27.712 27.712 0 0 1-6.264 9.455A25.634 25.634 0 0 1 403.93 87a32.946 32.946 0 0 1-11.31 1.914 34.277 34.277 0 0 1-5.568-.407 37.931 37.931 0 0 1-4.408-.986v24.128h-15.891zm27.028 11.252a13.216 13.216 0 0 0-6.67 1.624 15.954 15.954 0 0 0-4.467 3.596v27.956a16.191 16.191 0 0 0 3.48.87 28.552 28.552 0 0 0 4.176.29q8.119 0 11.832-4.988 3.712-4.986 3.712-12.876a21.71 21.71 0 0 0-2.958-11.774q-2.957-4.698-9.105-4.698zM428.928 14.788a9.048 9.048 0 0 1 2.553-6.496 8.735 8.735 0 0 1 6.611-2.668 9.019 9.019 0 0 1 9.28 9.164 8.996 8.996 0 0 1-2.61 6.438 8.829 8.829 0 0 1-6.67 2.726 8.639 8.639 0 0 1-6.61-2.726 9.101 9.101 0 0 1-2.554-6.438zm1.277 72.965V31.26h15.891v56.493z" fill="#111722"/><path fill="#215cea" d="M54.381 4.916l9.912 5.712 4.62-2.642L55.506.298l-1.125 4.618zM108.854 92.417l-4.57-1.264V79.682l4.56-2.606.01 15.341z"/></svg>