<?xml version="1.0" encoding="UTF-8"?>
<svg width="22px" height="21px" viewBox="0 0 22 21" version="1.1" xmlns="http://www.w3.org/2000/svg" xmlns:xlink="http://www.w3.org/1999/xlink">
    <!-- Generator: Sketch 44.1 (41455) - http://www.bohemiancoding.com/sketch -->
    <title>Warning</title>
    <desc>Created with Sketch.</desc>
    <defs></defs>
    <g id="Pages" stroke="none" stroke-width="1" fill="none" fill-rule="evenodd">
        <g id="Home-view" transform="translate(-1085.000000, -182.000000)" fill-rule="nonzero">
            <g id="Notification-2---Warning" transform="translate(1066.000000, 162.000000)">
                <g id="Warning" transform="translate(20.000000, 21.000000)">
                    <g id="exclamation" transform="translate(8.500000, 6.000000)" fill="#FA9C00">
                        <path d="M2.86305623,7.72680235 L2.86305623,9.27216281 C2.86305623,9.39174428 2.819363,9.49522824 2.73197654,9.58261469 C2.64459009,9.67000115 2.54110613,9.71369438 2.42152466,9.71369438 L0.655398413,9.71369438 C0.535816948,9.71369438 0.432332988,9.67000115 0.344946533,9.58261469 C0.257560078,9.49522824 0.213866851,9.39174428 0.213866851,9.27216281 L0.213866851,7.72680235 C0.213866851,7.60722088 0.257560078,7.50373692 0.344946533,7.41635047 C0.432332988,7.32896401 0.535816948,7.28527078 0.655398413,7.28527078 L2.42152466,7.28527078 C2.54110613,7.28527078 2.64459009,7.32896401 2.73197654,7.41635047 C2.819363,7.50373692 2.86305623,7.60722088 2.86305623,7.72680235 Z M3.07002415,0.441531563 L2.87685409,5.73991031 C2.8722548,5.85949178 2.82511211,5.96297574 2.73542601,6.05036219 C2.64573991,6.13774865 2.54110613,6.18144188 2.42152466,6.18144188 L0.655398413,6.18144188 C0.535816948,6.18144188 0.431183167,6.13774865 0.341497068,6.05036219 C0.251810969,5.96297574 0.204668276,5.85949178 0.200068989,5.73991031 L0.00689893067,0.441531563 C0.00229964356,0.321950098 0.0425434058,0.218466138 0.127630217,0.131079683 C0.212717029,0.0436932275 0.315051167,0 0.434632632,0 L2.64229044,0 C2.76187191,0 2.86420605,0.0436932275 2.94929286,0.131079683 C3.03437967,0.218466138 3.07462343,0.321950098 3.07002415,0.441531563 Z" id="Shape"></path>
                    </g>
                    <g id="exclamation-triangle" stroke="#FA9C00">
                        <path d="M11.247216,0.74610245 L19.7995546,16.4253898 C20.0593912,16.8930958 20.0519673,17.3608018 19.7772829,17.8285078 C19.6510765,18.043801 19.4784707,18.2145509 19.2594655,18.3407572 C19.0404603,18.4669636 18.8047513,18.5300668 18.5523385,18.5300668 L1.44766147,18.5300668 C1.1952487,18.5300668 0.959539718,18.4669636 0.740534521,18.3407572 C0.521529324,18.2145509 0.348923534,18.043801 0.222717149,17.8285078 C-0.0519673348,17.3608018 -0.0593912398,16.8930958 0.200445434,16.4253898 L8.75278396,0.74610245 C8.87899035,0.515961396 9.05345212,0.334075724 9.27616927,0.200445434 C9.49888641,0.0668151448 9.74016333,0 10,0 C10.2598367,0 10.5011136,0.0668151448 10.7238307,0.200445434 C10.9465479,0.334075724 11.1210097,0.515961396 11.247216,0.74610245 Z" id="Shape"></path>
                    </g>
                </g>
            </g>
        </g>
    </g>
</svg>