<?xml version="1.0" encoding="UTF-8"?>
<svg width="20px" height="20px" viewBox="0 0 20 20" version="1.1" xmlns="http://www.w3.org/2000/svg" xmlns:xlink="http://www.w3.org/1999/xlink">
    <!-- Generator: Sketch 44.1 (41455) - http://www.bohemiancoding.com/sketch -->
    <title>Info</title>
    <desc>Created with Sketch.</desc>
    <defs></defs>
    <g id="Pages" stroke="none" stroke-width="1" fill="none" fill-rule="evenodd">
        <g id="Home-view" transform="translate(-1086.000000, -255.000000)">
            <g id="Notification-2---Info" transform="translate(1066.000000, 234.000000)">
                <g id="Info" transform="translate(20.000000, 21.000000)">
                    <g id="info" transform="translate(8.000000, 5.000000)" fill-rule="nonzero" fill="#1C5DE7">
                        <path d="M4,7.6 L4,8.4 C4,8.50833333 3.96041667,8.60208333 3.88125,8.68125 C3.80208333,8.76041667 3.70833333,8.8 3.6,8.8 L0.4,8.8 C0.291666667,8.8 0.197916667,8.76041667 0.11875,8.68125 C0.0395833333,8.60208333 0,8.50833333 0,8.4 L0,7.6 C0,7.49166667 0.0395833333,7.39791667 0.11875,7.31875 C0.197916667,7.23958333 0.291666667,7.2 0.4,7.2 L0.8,7.2 L0.8,4.8 L0.4,4.8 C0.291666667,4.8 0.197916667,4.76041667 0.11875,4.68125 C0.0395833333,4.60208333 0,4.50833333 0,4.4 L0,3.6 C0,3.49166667 0.0395833333,3.39791667 0.11875,3.31875 C0.197916667,3.23958333 0.291666667,3.2 0.4,3.2 L2.8,3.2 C2.90833333,3.2 3.00208333,3.23958333 3.08125,3.31875 C3.16041667,3.39791667 3.2,3.49166667 3.2,3.6 L3.2,7.2 L3.6,7.2 C3.70833333,7.2 3.80208333,7.23958333 3.88125,7.31875 C3.96041667,7.39791667 4,7.49166667 4,7.6 Z M3.2,0.4 L3.2,1.6 C3.2,1.70833333 3.16041667,1.80208333 3.08125,1.88125 C3.00208333,1.96041667 2.90833333,2 2.8,2 L1.2,2 C1.09166667,2 0.997916667,1.96041667 0.91875,1.88125 C0.839583333,1.80208333 0.8,1.70833333 0.8,1.6 L0.8,0.4 C0.8,0.291666667 0.839583333,0.197916667 0.91875,0.11875 C0.997916667,0.0395833333 1.09166667,0 1.2,0 L2.8,0 C2.90833333,0 3.00208333,0.0395833333 3.08125,0.11875 C3.16041667,0.197916667 3.2,0.291666667 3.2,0.4 Z" id="Shape"></path>
                    </g>
                    <rect id="Rectangle-2" stroke="#1C5DE7" x="0.5" y="0.5" width="19" height="19" rx="9.5"></rect>
                </g>
            </g>
        </g>
    </g>
</svg>