<svg width="23" height="32" viewBox="0 0 23 32" xmlns="http://www.w3.org/2000/svg"><title>Group</title><g fill="none" fill-rule="evenodd"><path d="M.018 0h20c1.104 0 2 .895 2 2v28c0 1.105-.896 2-2 2h-20V0z" fill="#FAFAFB"/><g fill-rule="nonzero" fill="#B3B5B9"><path d="M14.018 18.375c0 .102-.037.19-.112.264l-2.625 2.624c-.073.074-.16.11-.262.11-.102 0-.19-.036-.264-.11L8.13 18.64c-.075-.076-.112-.163-.112-.265 0-.102.037-.19.11-.264.075-.073.163-.11.265-.11h5.25c.1 0 .19.037.263.11.075.076.112.163.112.265zM8.018 15c0-.102.037-.19.11-.264l2.626-2.625c.074-.073.162-.11.264-.11.1 0 .19.037.263.11l2.626 2.626c.075.075.112.162.112.264 0 .102-.037.19-.112.264-.074.074-.162.11-.263.11h-5.25c-.102 0-.19-.036-.264-.11-.075-.075-.112-.162-.112-.264z"/></g></g></svg>