<svg width="22" height="21" xmlns="http://www.w3.org/2000/svg"><g fill-rule="nonzero" fill="none"><path d="M12.363 14.727v1.545c0 .12-.044.223-.131.31a.424.424 0 01-.31.132h-1.767a.424.424 0 01-.31-.131.424.424 0 01-.131-.31v-1.546c0-.12.044-.223.13-.31a.424.424 0 01.311-.132h1.767c.12 0 .223.044.31.131.087.088.131.191.131.31zm.207-7.285l-.193 5.298a.444.444 0 01-.142.31.436.436 0 01-.313.131h-1.767a.436.436 0 01-.314-.13.444.444 0 01-.14-.311l-.194-5.298a.406.406 0 01.12-.31A.413.413 0 019.936 7h2.207c.12 0 .222.044.307.131.085.087.126.191.121.31z" fill="#FA9C00"/><path d="M12.247 1.746l8.553 15.68c.26.467.252.935-.023 1.403a1.4 1.4 0 01-.518.512c-.219.126-.454.19-.707.19H2.448c-.253 0-.488-.064-.707-.19a1.4 1.4 0 01-.518-.512c-.275-.468-.282-.936-.023-1.404L9.753 1.746A1.422 1.422 0 0111 1a1.422 1.422 0 011.247.746z" stroke="#FA9C00"/></g></svg>