<?xml version="1.0" encoding="UTF-8"?>
<svg width="23px" height="32px" viewBox="0 0 23 32" version="1.1" xmlns="http://www.w3.org/2000/svg" xmlns:xlink="http://www.w3.org/1999/xlink">
    <!-- Generator: Sketch 46.2 (44496) - http://www.bohemiancoding.com/sketch -->
    <title>Group</title>
    <desc>Created with Sketch.</desc>
    <defs></defs>
    <g id="Symbols" stroke="none" stroke-width="1" fill="none" fill-rule="evenodd">
        <g id="Inputs/Select-(col-6)" transform="translate(-335.000000, -1.000000)">
            <g id="input">
                <g id="Number" transform="translate(335.017699, 1.000000)">
                    <g id="Group">
                        <path d="M-5.68434189e-14,0 L20,0 L20,0 C21.1045695,-2.02906125e-16 22,0.8954305 22,2 L22,30 L22,30 C22,31.1045695 21.1045695,32 20,32 L-5.68434189e-14,32 L-5.68434189e-14,0 Z" id="Rectangle" fill="#FAFAFB"></path>
                        <g id="Carets" transform="translate(8.000000, 11.000000)" fill-rule="nonzero" fill="#B3B5B9">
                            <g id="caret-down" transform="translate(0.000000, 7.000000)">
                                <path d="M6,0.375 C6,0.4765625 5.96289062,0.564453125 5.88867188,0.638671875 L3.26367188,3.26367188 C3.18945312,3.33789063 3.1015625,3.375 3,3.375 C2.8984375,3.375 2.81054688,3.33789063 2.73632812,3.26367188 L0.111328125,0.638671875 C0.037109375,0.564453125 0,0.4765625 0,0.375 C0,0.2734375 0.037109375,0.185546875 0.111328125,0.111328125 C0.185546875,0.037109375 0.2734375,0 0.375,0 L5.625,0 C5.7265625,0 5.81445312,0.037109375 5.88867188,0.111328125 C5.96289062,0.185546875 6,0.2734375 6,0.375 Z" id="Shape"></path>
                            </g>
                            <g id="caret-top" transform="translate(3.000000, 2.375000) rotate(180.000000) translate(-3.000000, -2.375000) translate(0.000000, 0.375000)">
                                <path d="M6,0.375 C6,0.4765625 5.96289062,0.564453125 5.88867187,0.638671875 L3.26367187,3.26367188 C3.18945312,3.33789063 3.1015625,3.375 3,3.375 C2.8984375,3.375 2.81054687,3.33789063 2.73632812,3.26367188 L0.111328125,0.638671875 C0.037109375,0.564453125 -1.77635684e-15,0.4765625 -1.77635684e-15,0.375 C-1.77635684e-15,0.2734375 0.037109375,0.185546875 0.111328125,0.111328125 C0.185546875,0.037109375 0.2734375,1.77635684e-15 0.375,1.77635684e-15 L5.625,1.77635684e-15 C5.7265625,1.77635684e-15 5.81445312,0.037109375 5.88867187,0.111328125 C5.96289062,0.185546875 6,0.2734375 6,0.375 Z" id="Shape"></path>
                            </g>
                        </g>
                    </g>
                </g>
            </g>
        </g>
    </g>
</svg>