<svg width="23" height="32" xmlns="http://www.w3.org/2000/svg"><g fill="none" fill-rule="evenodd"><path d="M.018 0h20a2 2 0 012 2v28a2 2 0 01-2 2h-20V0z" fill="#FAFAFB"/><g fill-rule="nonzero" fill="#B3B5B9"><path d="M14.018 18.375a.36.36 0 01-.112.264l-2.625 2.625a.36.36 0 01-.263.111.36.36 0 01-.264-.111l-2.625-2.625a.36.36 0 01-.111-.264.36.36 0 01.111-.264.36.36 0 01.264-.111h5.25a.36.36 0 01.263.111.36.36 0 01.112.264zM8.018 15a.36.36 0 01.111-.264l2.625-2.625a.36.36 0 01.264-.111.36.36 0 01.263.111l2.625 2.625a.36.36 0 01.112.264.36.36 0 01-.112.264.36.36 0 01-.263.111h-5.25a.36.36 0 01-.264-.111.36.36 0 01-.111-.264z"/></g></g></svg>