<svg width="647" height="240" xmlns="http://www.w3.org/2000/svg"><g transform="translate(0 -12)" fill="none" fill-rule="evenodd" opacity=".5"><rect stroke="#E3E3E5" stroke-width="2" x="91" y="99" width="8" height="8" rx="4"/><rect stroke="#E3E3E5" stroke-width="2" x="21" y="149" width="4" height="4" rx="2"/><rect stroke="#E3E3E5" stroke-width="2" x="111" y="249" width="2" height="2" rx="1"/><rect fill="#F0F0F3" y="228" width="12" height="12" rx="5"/><rect stroke="#E3E3E5" stroke-width="2" x="141" y="179" width="10" height="10" rx="5"/><rect stroke="#E3E3E5" stroke-width="2" x="531" y="189" width="12" height="12" rx="6"/><rect stroke="#E3E3E5" stroke-width="2" x="641" y="129" width="5" height="5" rx="2.5"/><rect stroke="#E3E3E5" stroke-width="2" x="441" y="229" width="3" height="3" rx="1.5"/><rect fill="#F0F0F3" x="520" y="88" width="10" height="10" rx="5"/><rect stroke="#E3E3E5" stroke-width="2" x="431" y="19" width="4" height="4" rx="2"/><rect fill="#F0F0F3" x="220" y="208" width="9" height="9" rx="4.5"/><path d="M570.002 4.805c0 .115-.068.24-.204.375l-2.836 2.766.672 3.907c.005.037.008.089.008.156a.46.46 0 0 1-.082.278.276.276 0 0 1-.238.113.632.632 0 0 1-.313-.094l-3.508-1.844-3.508 1.844a.664.664 0 0 1-.313.094c-.11 0-.191-.038-.246-.113a.46.46 0 0 1-.082-.278c0-.03.005-.083.015-.156l.672-3.907-2.844-2.766c-.13-.14-.195-.265-.195-.375 0-.192.146-.312.438-.36l3.922-.57L563.118.32c.099-.213.227-.32.383-.32s.284.107.383.32l1.758 3.555 3.922.57c.292.048.438.168.438.36zM417 156.696c0 .088-.052.184-.156.288l-2.182 2.128.517 3.005a.909.909 0 0 1 .006.12.354.354 0 0 1-.063.213.212.212 0 0 1-.183.087.486.486 0 0 1-.24-.072L412 161.047l-2.698 1.418a.51.51 0 0 1-.24.072c-.085 0-.148-.029-.19-.087a.354.354 0 0 1-.063-.213c0-.024.004-.064.012-.12l.517-3.005-2.188-2.128c-.1-.108-.15-.204-.15-.288 0-.148.112-.24.337-.277l3.016-.438 1.353-2.735c.076-.164.174-.246.294-.246s.218.082.294.246l1.353 2.735 3.016.438c.225.037.337.129.337.277zM177 36.696c0 .088-.052.184-.156.288l-2.182 2.128.517 3.005a.909.909 0 0 1 .006.12.354.354 0 0 1-.063.213.212.212 0 0 1-.183.087.486.486 0 0 1-.24-.072L172 41.047l-2.698 1.418a.51.51 0 0 1-.24.072c-.085 0-.148-.029-.19-.087a.354.354 0 0 1-.063-.213c0-.024.004-.064.012-.12l.517-3.005-2.188-2.128c-.1-.108-.15-.204-.15-.288 0-.148.112-.24.337-.277l3.016-.438 1.353-2.735c.076-.164.174-.246.294-.246s.218.082.294.246l1.353 2.735 3.016.438c.225.037.337.129.337.277z" fill-rule="nonzero" fill="#E3E3E5"/></g></svg>