<?xml version="1.0" encoding="UTF-8"?>
<svg width="16px" height="16px" viewBox="0 0 16 16" version="1.1" xmlns="http://www.w3.org/2000/svg" xmlns:xlink="http://www.w3.org/1999/xlink">
    <!-- Generator: Sketch 49.3 (51167) - http://www.bohemiancoding.com/sketch -->
    <title>icon-search</title>
    <desc>Created with Sketch.</desc>
    <defs></defs>
    <g id="Symbols" stroke="none" stroke-width="1" fill="none" fill-rule="evenodd">
        <g id="Search" transform="translate(0.000000, -24.000000)" fill="#B3B5B9">
            <g id="icon-search">
                <path d="M15.875,37.4458333 L12.3416667,33.8666667 C12.9166667,32.8625 13.2166667,31.7458333 13.2166667,30.6208333 C13.2166667,26.9708333 10.25,24 6.60833333,24 C2.96666667,24 0,26.9708333 0,30.6208333 C0,34.2708333 2.96666667,37.2416667 6.60833333,37.2416667 C7.77083333,37.2416667 8.92083333,36.9208333 9.94583333,36.3083333 L13.4625,39.875 C13.5416667,39.9541667 13.6541667,40.0041667 13.7666667,40.0041667 C13.8791667,40.0041667 13.9916667,39.9583333 14.0708333,39.875 L15.875,38.05 C16.0416667,37.8791667 16.0416667,37.6125 15.875,37.4458333 L15.875,37.4458333 Z M6.60833333,26.5791667 C8.83333333,26.5791667 10.6416667,28.3916667 10.6416667,30.6208333 C10.6416667,32.85 8.83333333,34.6625 6.60833333,34.6625 C4.38333333,34.6625 2.575,32.85 2.575,30.6208333 C2.575,28.3916667 4.38333333,26.5791667 6.60833333,26.5791667 L6.60833333,26.5791667 Z"></path>
            </g>
        </g>
    </g>
</svg>