<?xml version="1.0" encoding="UTF-8"?>
<svg width="8px" height="8px" viewBox="0 0 8 8" version="1.1" xmlns="http://www.w3.org/2000/svg" xmlns:xlink="http://www.w3.org/1999/xlink">
    <!-- Generator: Sketch 49.3 (51167) - http://www.bohemiancoding.com/sketch -->
    <title>Shape</title>
    <desc>Created with Sketch.</desc>
    <defs></defs>
    <g id="Symbols" stroke="none" stroke-width="1" fill="none" fill-rule="evenodd">
        <g id="Search" transform="translate(-300.000000, -29.000000)" fill="#B3B5B9">
            <g id="Shape">
                <path d="M307.779774,35.7197709 L305.060003,33 L307.779774,30.2802291 C308.073409,29.9865938 308.073409,29.5138618 307.779774,29.2202265 C307.486138,28.9265912 307.013406,28.9265912 306.719771,29.2202265 L304,31.9399974 L301.280229,29.2202265 C300.986594,28.9265912 300.513862,28.9265912 300.220226,29.2202265 C299.926591,29.5138618 299.926591,29.9865938 300.220226,30.2802291 L302.939997,33 L300.220226,35.7197709 C299.926591,36.0134062 299.926591,36.4861382 300.220226,36.7797735 C300.513862,37.0734088 300.986594,37.0734088 301.280229,36.7797735 L304,34.0600026 L306.719771,36.7797735 C307.013406,37.0734088 307.486138,37.0734088 307.779774,36.7797735 C308.071326,36.4861382 308.071326,36.0113237 307.779774,35.7197709 L307.779774,35.7197709 Z"></path>
            </g>
        </g>
    </g>
</svg>