<?xml version="1.0" encoding="UTF-8"?>
<svg width="10px" height="10px" viewBox="0 0 10 10" version="1.1" xmlns="http://www.w3.org/2000/svg" xmlns:xlink="http://www.w3.org/1999/xlink">
    <!-- Generator: Sketch 50.2 (55047) - http://www.bohemiancoding.com/sketch -->
    <title>Shape</title>
    <desc>Created with Sketch.</desc>
    <defs></defs>
    <g id="Pages" stroke="none" stroke-width="1" fill="none" fill-rule="evenodd">
        <g id="Content-Manager---Settings-view---Single" transform="translate(-668.000000, -604.000000)" fill="#007EFF" fill-rule="nonzero">
            <g id="Container" transform="translate(257.000000, 84.000000)">
                <g id="Forms" transform="translate(0.000000, 77.000000)">
                    <g id="Settings">
                        <g id="Attributes" transform="translate(12.000000, 327.000000)">
                            <g id="Order-attributes" transform="translate(0.000000, 23.000000)">
                                <g id="Link" transform="translate(35.000000, 0.000000)">
                                    <path d="M366.39604,102.155116 L366.9967,101.554455 L365.445545,100.0033 L364.844884,100.60396 L364.844884,101.310231 L365.689769,101.310231 L365.689769,102.155116 L366.39604,102.155116 Z M369.848185,96.029703 C369.848185,95.9328933 369.79978,95.8844884 369.70297,95.8844884 C369.658966,95.8844884 369.621562,95.89989 369.590759,95.9306931 L366.013201,99.5082508 C365.982398,99.5390539 365.966997,99.5764576 365.966997,99.620462 C365.966997,99.7172717 366.015402,99.7656766 366.112211,99.7656766 C366.156216,99.7656766 366.193619,99.750275 366.224422,99.7194719 L369.80198,96.1419142 C369.832783,96.1111111 369.848185,96.0737074 369.848185,96.029703 Z M369.491749,94.7623762 L372.237624,97.5082508 L366.745875,103 L364,103 L364,100.254125 L369.491749,94.7623762 Z M374,95.3960396 C374,95.6292629 373.918592,95.8272827 373.755776,95.990099 L372.660066,97.0858086 L369.914191,94.339934 L371.009901,93.2508251 C371.168317,93.0836084 371.366337,93 371.60396,93 C371.837184,93 372.037404,93.0836084 372.20462,93.2508251 L373.755776,94.7953795 C373.918592,94.9669967 374,95.1672167 374,95.3960396 Z" id="Shape"></path>
                                </g>
                            </g>
                        </g>
                    </g>
                </g>
            </g>
        </g>
    </g>
</svg>