<?xml version="1.0" encoding="UTF-8"?>
<svg width="8px" height="8px" viewBox="0 0 8 8" version="1.1" xmlns="http://www.w3.org/2000/svg" xmlns:xlink="http://www.w3.org/1999/xlink">
    <!-- Generator: Sketch 49.3 (51167) - http://www.bohemiancoding.com/sketch -->
    <title>Shape</title>
    <desc>Created with Sketch.</desc>
    <defs></defs>
    <g id="Pages" stroke="none" stroke-width="1" fill="none" fill-rule="evenodd">
        <g id="Content-Manager---List-view" transform="translate(-568.000000, -172.000000)" fill="#007EFF">
            <g id="Container" transform="translate(234.000000, 0.000000)">
                <g id="Filter" transform="translate(29.000000, 160.000000)">
                    <g id="Filter-#1" transform="translate(91.000000, 0.000000)">
                        <path d="M221.779774,18.7197709 L219.060003,16 L221.779774,13.2802291 C222.073409,12.9865938 222.073409,12.5138618 221.779774,12.2202265 C221.486138,11.9265912 221.013406,11.9265912 220.719771,12.2202265 L218,14.9399974 L215.280229,12.2202265 C214.986594,11.9265912 214.513862,11.9265912 214.220226,12.2202265 C213.926591,12.5138618 213.926591,12.9865938 214.220226,13.2802291 L216.939997,16 L214.220226,18.7197709 C213.926591,19.0134062 213.926591,19.4861382 214.220226,19.7797735 C214.513862,20.0734088 214.986594,20.0734088 215.280229,19.7797735 L218,17.0600026 L220.719771,19.7797735 C221.013406,20.0734088 221.486138,20.0734088 221.779774,19.7797735 C222.071326,19.4861382 222.071326,19.0113237 221.779774,18.7197709 L221.779774,18.7197709 Z" id="Shape"></path>
                    </g>
                </g>
            </g>
        </g>
    </g>
</svg>